<svg width="56" height="62" viewBox="0 0 56 62" fill="none" xmlns="http://www.w3.org/2000/svg">
<path d="M31.522 25.0519L26.9807 28.4183C26.9807 28.4183 30.5901 33.0634 31.6313 39.462C32.3051 43.5889 32.8345 47.2702 32.3926 50.7673C32.2132 52.1963 30.9663 55.0783 30.6076 56.047C30.2488 57.0158 29.7326 59.2972 31.3295 59.7525C32.9263 60.2078 38.1282 60.3822 38.9026 60.2659C39.677 60.1497 40.5913 59.5297 40.1757 57.4614C39.9176 56.1778 39.4801 52.1623 39.222 49.4256C38.9638 46.6889 38.8063 41.4189 36.6538 34.9477C34.5582 28.6508 31.522 25.0519 31.522 25.0519Z" fill="#DC8124"/>
<path d="M35.7 52.8259C38.045 52.9761 39.5325 52.4772 39.5325 52.4772L39.8519 55.1073C39.8519 55.1073 38.4169 55.5578 35.7175 55.3689C33.3594 55.2042 31.2288 54.4922 31.2288 54.4922L32.1081 52.0073C32.1038 52.0025 33.3375 52.6758 35.7 52.8259ZM32.4625 45.6911C32.4625 45.6911 32.5063 46.4225 32.5281 46.8827C32.55 47.3477 32.5588 48.0645 32.5588 48.0645C32.5588 48.0645 34.3306 48.2922 35.7306 48.2292C38.0231 48.1275 39.0556 47.522 39.0556 47.522C39.0556 47.522 39.0163 46.9553 38.9506 46.2869C38.8894 45.6136 38.815 45.0614 38.815 45.0614C38.815 45.0614 37.6906 45.6766 35.3281 45.8461C33.6438 45.9672 32.4625 45.6911 32.4625 45.6911ZM31.5569 39.0261C31.5569 39.0261 32.6331 39.2683 34.6369 38.7887C36.5838 38.3189 37.4194 37.5003 37.4194 37.5003C37.4194 37.5003 37.6031 38.13 37.7125 38.6144C37.8131 39.0648 37.9706 39.7236 37.9706 39.7236C37.9706 39.7236 37.1831 40.5809 35.0481 41.0459C32.9525 41.5061 31.9113 41.1912 31.9113 41.1912C31.9113 41.1912 31.8106 40.5712 31.7406 40.1111C31.6575 39.588 31.5569 39.0261 31.5569 39.0261Z" fill="#C0711F"/>
<path d="M30.45 34.9331C30.45 34.9331 31.4431 35.0058 33.3725 34.2017C35.0569 33.4994 35.7787 32.5597 35.7787 32.5597L33.4075 26.7956L27.7244 29.0819L30.45 34.9331Z" fill="#A2672B"/>
<path d="M30.3494 27.8516C30.3494 27.8516 34.7419 29.4064 36.68 30.1233C38.6182 30.8402 40.1625 31.1986 40.1625 31.1986C40.1625 31.1986 40.7707 29.8617 40.985 28.7089C41.1294 27.9436 41.0988 26.7423 41.3963 26.7666C41.8863 26.8053 42.2407 27.7256 42.2625 28.9753C42.28 30.0506 42.0263 31.6491 42.0263 31.6491L44.0782 32.2691C44.0782 32.2691 44.6075 31.4263 44.905 30.0845C45.2157 28.6798 45.0582 28.147 45.3688 28.0502C45.7144 27.9436 46.3663 28.4425 46.2438 30.6609C46.1694 32.0123 45.9638 32.7825 46.025 32.8358C46.1257 32.923 47.1144 33.3298 48.0113 33.6108C48.9082 33.8869 49.8269 34.0661 49.8269 34.0661C49.8269 34.0661 51.45 25.9673 46.9175 22.6978C41.2475 18.6048 33.9588 22.2619 33.9588 22.2619L39.3007 17.5925C39.3007 17.5925 38.9157 16.5366 38.4475 15.7325C37.9138 14.8122 37.2007 14.2261 37.3363 14.0178C37.52 13.7272 38.6225 13.7272 39.5632 14.6959C40.355 15.5145 40.9544 16.3622 40.9807 16.3864L42.5513 15.1319C42.5513 15.1319 42.3982 13.9936 41.9825 13.2719C41.58 12.5695 40.9675 11.9156 41.1207 11.8188C41.4444 11.6153 42.4507 11.9689 43.085 12.6519C43.6319 13.2428 44.0738 14.1583 44.0738 14.1583L47.2675 11.7364C47.2675 11.7364 44.9357 7.64344 40.0182 7.84204C35.1007 8.04063 32.445 11.5378 31.6181 12.5695C30.7913 13.6013 29.8594 15.8294 29.8594 15.8294L29.9513 9.6536C29.9513 9.6536 29.1856 9.45985 28.4506 9.36297C27.3438 9.21766 26.5738 9.46954 26.5563 9.34844C26.4994 8.91735 27.1906 8.28766 28.28 8.03094C29.3475 7.78391 30.2094 7.92922 30.2094 7.92922L31.1107 2.15547C31.1107 2.15547 29.1025 1.97625 26.8625 3.15329C25.4144 3.91375 23.7344 5.23125 22.6188 7.36735C20.1469 12.09 22.5313 17.1759 22.5313 17.1759C22.5313 17.1759 19.04 13.1556 13.2344 14.6717C6.86878 16.3331 5.26315 24.0686 5.6219 24.0686C6.59315 24.0686 10.1369 24.2527 10.3163 24.0928C10.4082 24.0153 10.6532 22.9255 11.235 21.9422C11.8125 20.9589 12.5869 20.1306 13.2213 20.1306C13.5494 20.1306 13.1075 20.862 12.7182 21.918C12.3244 22.9933 12.1057 24.1897 12.1057 24.1897H15.2644C15.2644 24.1897 15.9294 20.6489 17.0407 20.397C17.5175 20.2905 17.1938 21.4288 17.0757 22.3006C16.9532 23.2016 16.8832 24.1945 16.8832 24.1945L20.8819 24.335C20.8819 24.335 15.7413 24.6789 12.1757 28.2827C8.48753 32.0027 8.10253 37.1758 8.42628 39.7575C8.75003 42.3392 9.07378 43.5308 9.28815 43.6519C9.50253 43.773 12.4819 40.1159 12.5913 39.835C12.7007 39.5589 12.1232 38.3625 12.1232 36.7738C12.1232 35.185 12.4469 34.3906 12.7313 34.3519C13.02 34.3131 12.9457 35.4659 13.16 36.4589C13.3875 37.5003 13.7332 38.3673 13.8775 38.4448C14.0219 38.5223 15.7719 36.0666 15.7719 36.0666C15.7719 36.0666 15.4744 35.1366 15.3782 34.2308C15.2819 33.325 15.365 32.3466 15.6013 32.1674C15.8594 31.9688 16.0782 33.0053 16.3844 33.8917C16.6294 34.5989 16.7475 34.8411 16.8875 35.03L20.055 31.6927C20.055 31.6927 17.5 36.2119 17.8325 40.7117C18.2 45.7444 21.35 47.6286 21.5294 47.585C21.7088 47.5463 23.8263 42.1794 23.8263 42.1794C23.8263 42.1794 23.0781 41.4189 22.5225 40.2709C21.8225 38.8227 21.84 37.7134 22.1025 37.5294C22.47 37.2727 22.9994 38.8808 23.5375 39.5977C24.0756 40.3145 24.3994 40.7117 24.5088 40.7117C24.6182 40.7117 26.18 36.9336 26.18 36.9336C26.18 36.9336 25.725 36.6381 25.3838 36.052C25.095 35.558 24.8369 34.7055 25.0819 34.192C25.3444 33.9208 25.6113 34.6231 26.0182 34.9913C26.425 35.3594 26.7357 35.5434 26.7357 35.5434C26.7357 35.5434 28.385 32.4047 29.0325 30.9322C29.6844 29.4452 30.3494 27.8516 30.3494 27.8516Z" fill="#728137"/>
<path d="M31.3863 29.9538C31.5875 29.8084 31.9944 26.7908 32.1869 25.2844C32.3619 23.9281 32.7907 21.8986 31.8588 21.7C31.22 21.5644 30.9532 22.567 30.7432 23.6423C30.5594 24.6014 30.2882 25.9044 30.2882 25.9044C30.2882 25.9044 29.4613 24.1461 28.9057 23.0756C28.5032 22.3006 27.6369 20.6683 26.9457 21.1575C26.1538 21.7194 27.0113 23.5164 27.4969 24.5094C27.9825 25.5023 28.5294 26.66 28.5294 26.66C28.5294 26.66 27.0682 26.1078 26.215 25.8172C25.2788 25.4975 24.0319 25.2166 23.8569 25.7736C23.5507 26.7423 24.7057 27.2267 26.9457 28.2391C29.1725 29.2417 31.045 30.2008 31.3863 29.9538ZM22.8069 11.2278C22.7063 13.2041 23.0213 16.0813 24.29 15.7616C25.3882 15.4903 24.115 13.6255 24.1282 11.2666C24.1457 7.95829 26.0794 7.16875 25.4713 6.45672C24.9769 5.87547 22.9688 8.01641 22.8069 11.2278ZM15.4175 16.5705C16.6207 16.2702 17.3775 16.3138 17.4038 15.9941C17.4344 15.5823 17.0669 15.2917 15.5094 15.3789C14.0788 15.4564 12.635 15.873 11.235 16.9241C10.4458 17.5162 9.72707 18.216 9.09567 19.0069C7.75692 20.7119 7.55567 22.1505 8.3563 22.3297C9.18317 22.5138 9.56817 21.482 10.1938 20.3825C11.6988 17.7233 13.9869 16.9289 15.4175 16.5705ZM10.2682 40.9297C10.9507 40.9006 10.9288 40.1789 10.9463 38.3141C10.9594 37.0983 10.9113 35.5192 11.375 33.9595C12.0007 31.8622 12.9675 30.5302 14.0744 29.4064C15.2907 28.1713 16.5725 27.4302 17.2944 27.0717C18.6725 26.3791 18.0294 25.7639 17.115 26.1998C16.205 26.6358 13.1075 27.8806 11.0863 31.2906C9.76942 33.5091 9.4413 35.2625 9.38442 37.602C9.34505 39.3652 9.80442 40.9491 10.2682 40.9297ZM20.7157 33.7609C20.16 33.7609 19.1407 36.672 19.215 39.6025C19.285 42.533 20.1557 44.4075 20.93 44.7514C21.5557 45.0275 22.0019 44.2961 21.77 43.1675C21.6169 42.4313 20.7857 41.2445 20.6238 39.3264C20.4619 37.4034 20.7682 35.3061 20.8557 34.7927C20.9475 34.2744 21.0875 33.7609 20.7157 33.7609Z" fill="#BDCF47"/>
</svg>
