<svg width="57" height="55" viewBox="0 0 57 55" fill="none" xmlns="http://www.w3.org/2000/svg">
<path d="M34.1468 13.6967H23.5127V51.5608H34.1468V13.6967Z" fill="url(#paint0_linear_16_324)"/>
<path d="M34.1468 13.6967H23.5127V51.5608H34.1468V13.6967Z" fill="url(#paint1_linear_16_324)"/>
<path d="M34.1468 13.6967H23.5127V51.5608H34.1468V13.6967Z" fill="url(#paint2_radial_16_324)"/>
<path d="M34.1468 13.6967H23.5127V51.5608H34.1468V13.6967Z" fill="url(#paint3_radial_16_324)"/>
<path d="M34.1468 13.6967H23.5127V51.5608H34.1468V13.6967Z" fill="url(#paint4_radial_16_324)"/>
<g filter="url(#filter0_f_16_324)">
<path d="M30.7783 24.188H32.3921V50.5828H30.7783V24.188Z" fill="url(#paint5_linear_16_324)"/>
</g>
<path d="M18.1866 3.59218C15.4311 3.59363 12.7769 4.59479 10.7508 6.39691C8.72479 8.19903 7.47508 10.6704 7.24977 13.3203C7.24233 13.4321 7.25907 13.5442 7.29892 13.6494C7.33878 13.7546 7.40089 13.8507 7.4813 13.9315C7.56171 14.0123 7.65866 14.0761 7.76599 14.1189C7.87332 14.1616 7.98869 14.1823 8.10477 14.1797H28.2685C28.3846 14.1823 28.5 14.1616 28.6073 14.1189C28.7146 14.0761 28.8116 14.0123 28.892 13.9315C28.9724 13.8507 29.0345 13.7546 29.0744 13.6494C29.1142 13.5442 29.131 13.4321 29.1235 13.3203C28.901 10.6693 27.6522 8.19639 25.6255 6.39372C23.5988 4.59105 20.943 3.59084 18.1866 3.59218Z" fill="url(#paint6_radial_16_324)"/>
<path d="M18.1866 3.59218C15.4311 3.59363 12.7769 4.59479 10.7508 6.39691C8.72479 8.19903 7.47508 10.6704 7.24977 13.3203C7.24233 13.4321 7.25907 13.5442 7.29892 13.6494C7.33878 13.7546 7.40089 13.8507 7.4813 13.9315C7.56171 14.0123 7.65866 14.0761 7.76599 14.1189C7.87332 14.1616 7.98869 14.1823 8.10477 14.1797H28.2685C28.3846 14.1823 28.5 14.1616 28.6073 14.1189C28.7146 14.0761 28.8116 14.0123 28.892 13.9315C28.9724 13.8507 29.0345 13.7546 29.0744 13.6494C29.1142 13.5442 29.131 13.4321 29.1235 13.3203C28.901 10.6693 27.6522 8.19639 25.6255 6.39372C23.5988 4.59105 20.943 3.59084 18.1866 3.59218Z" fill="url(#paint7_radial_16_324)"/>
<path d="M18.1866 3.59218C15.4311 3.59363 12.7769 4.59479 10.7508 6.39691C8.72479 8.19903 7.47508 10.6704 7.24977 13.3203C7.24233 13.4321 7.25907 13.5442 7.29892 13.6494C7.33878 13.7546 7.40089 13.8507 7.4813 13.9315C7.56171 14.0123 7.65866 14.0761 7.76599 14.1189C7.87332 14.1616 7.98869 14.1823 8.10477 14.1797H28.2685C28.3846 14.1823 28.5 14.1616 28.6073 14.1189C28.7146 14.0761 28.8116 14.0123 28.892 13.9315C28.9724 13.8507 29.0345 13.7546 29.0744 13.6494C29.1142 13.5442 29.131 13.4321 29.1235 13.3203C28.901 10.6693 27.6522 8.19639 25.6255 6.39372C23.5988 4.59105 20.943 3.59084 18.1866 3.59218Z" fill="url(#paint8_linear_16_324)"/>
<path d="M18.1866 3.59218C15.4311 3.59363 12.7769 4.59479 10.7508 6.39691C8.72479 8.19903 7.47508 10.6704 7.24977 13.3203C7.24233 13.4321 7.25907 13.5442 7.29892 13.6494C7.33878 13.7546 7.40089 13.8507 7.4813 13.9315C7.56171 14.0123 7.65866 14.0761 7.76599 14.1189C7.87332 14.1616 7.98869 14.1823 8.10477 14.1797H28.2685C28.3846 14.1823 28.5 14.1616 28.6073 14.1189C28.7146 14.0761 28.8116 14.0123 28.892 13.9315C28.9724 13.8507 29.0345 13.7546 29.0744 13.6494C29.1142 13.5442 29.131 13.4321 29.1235 13.3203C28.901 10.6693 27.6522 8.19639 25.6255 6.39372C23.5988 4.59105 20.943 3.59084 18.1866 3.59218Z" fill="url(#paint9_linear_16_324)"/>
<path d="M18.1866 3.59218C15.4311 3.59363 12.7769 4.59479 10.7508 6.39691C8.72479 8.19903 7.47508 10.6704 7.24977 13.3203C7.24233 13.4321 7.25907 13.5442 7.29892 13.6494C7.33878 13.7546 7.40089 13.8507 7.4813 13.9315C7.56171 14.0123 7.65866 14.0761 7.76599 14.1189C7.87332 14.1616 7.98869 14.1823 8.10477 14.1797H28.2685C28.3846 14.1823 28.5 14.1616 28.6073 14.1189C28.7146 14.0761 28.8116 14.0123 28.892 13.9315C28.9724 13.8507 29.0345 13.7546 29.0744 13.6494C29.1142 13.5442 29.131 13.4321 29.1235 13.3203C28.901 10.6693 27.6522 8.19639 25.6255 6.39372C23.5988 4.59105 20.943 3.59084 18.1866 3.59218Z" fill="url(#paint10_radial_16_324)"/>
<path d="M18.1866 3.59218C15.4311 3.59363 12.7769 4.59479 10.7508 6.39691C8.72479 8.19903 7.47508 10.6704 7.24977 13.3203C7.24233 13.4321 7.25907 13.5442 7.29892 13.6494C7.33878 13.7546 7.40089 13.8507 7.4813 13.9315C7.56171 14.0123 7.65866 14.0761 7.76599 14.1189C7.87332 14.1616 7.98869 14.1823 8.10477 14.1797H28.2685C28.3846 14.1823 28.5 14.1616 28.6073 14.1189C28.7146 14.0761 28.8116 14.0123 28.892 13.9315C28.9724 13.8507 29.0345 13.7546 29.0744 13.6494C29.1142 13.5442 29.131 13.4321 29.1235 13.3203C28.901 10.6693 27.6522 8.19639 25.6255 6.39372C23.5988 4.59105 20.943 3.59084 18.1866 3.59218Z" fill="url(#paint11_radial_16_324)"/>
<path d="M39.4725 3.59218C36.717 3.59363 34.0628 4.59479 32.0367 6.39691C30.0107 8.19903 28.761 10.6704 28.5357 13.3203C28.5282 13.4321 28.545 13.5442 28.5848 13.6494C28.6247 13.7546 28.6868 13.8507 28.7672 13.9315C28.8476 14.0123 28.9445 14.0761 29.0519 14.1189C29.1592 14.1616 29.2746 14.1823 29.3907 14.1797H49.5544C49.6705 14.1823 49.7859 14.1616 49.8932 14.1189C50.0005 14.0761 50.0975 14.0123 50.1779 13.9315C50.2583 13.8507 50.3204 13.7546 50.3603 13.6494C50.4001 13.5442 50.4168 13.4321 50.4094 13.3203C50.1873 10.6692 48.9386 8.19602 46.9118 6.39327C44.8851 4.59052 42.229 3.59045 39.4725 3.59218Z" fill="url(#paint12_radial_16_324)"/>
<path d="M39.4725 3.59218C36.717 3.59363 34.0628 4.59479 32.0367 6.39691C30.0107 8.19903 28.761 10.6704 28.5357 13.3203C28.5282 13.4321 28.545 13.5442 28.5848 13.6494C28.6247 13.7546 28.6868 13.8507 28.7672 13.9315C28.8476 14.0123 28.9445 14.0761 29.0519 14.1189C29.1592 14.1616 29.2746 14.1823 29.3907 14.1797H49.5544C49.6705 14.1823 49.7859 14.1616 49.8932 14.1189C50.0005 14.0761 50.0975 14.0123 50.1779 13.9315C50.2583 13.8507 50.3204 13.7546 50.3603 13.6494C50.4001 13.5442 50.4168 13.4321 50.4094 13.3203C50.1873 10.6692 48.9386 8.19602 46.9118 6.39327C44.8851 4.59052 42.229 3.59045 39.4725 3.59218Z" fill="url(#paint13_radial_16_324)"/>
<path d="M39.4725 3.59218C36.717 3.59363 34.0628 4.59479 32.0367 6.39691C30.0107 8.19903 28.761 10.6704 28.5357 13.3203C28.5282 13.4321 28.545 13.5442 28.5848 13.6494C28.6247 13.7546 28.6868 13.8507 28.7672 13.9315C28.8476 14.0123 28.9445 14.0761 29.0519 14.1189C29.1592 14.1616 29.2746 14.1823 29.3907 14.1797H49.5544C49.6705 14.1823 49.7859 14.1616 49.8932 14.1189C50.0005 14.0761 50.0975 14.0123 50.1779 13.9315C50.2583 13.8507 50.3204 13.7546 50.3603 13.6494C50.4001 13.5442 50.4168 13.4321 50.4094 13.3203C50.1873 10.6692 48.9386 8.19602 46.9118 6.39327C44.8851 4.59052 42.229 3.59045 39.4725 3.59218Z" fill="url(#paint14_linear_16_324)"/>
<path d="M14.113 14.5458C12.1611 16.4238 11.0147 18.9428 10.9024 21.6003C10.7902 24.2578 11.7203 26.8585 13.5073 28.8836C13.828 29.2445 14.3944 29.2445 14.7435 28.9076L28.9989 15.1525C29.0828 15.075 29.1491 14.9816 29.1935 14.8781C29.238 14.7746 29.2597 14.6633 29.2571 14.5513C29.2546 14.4393 29.228 14.329 29.1789 14.2274C29.1299 14.1259 29.0594 14.0353 28.9721 13.9614C26.8699 12.2446 24.1763 11.352 21.4246 11.4602C18.6728 11.5685 16.0634 12.6696 14.113 14.5458Z" fill="url(#paint15_radial_16_324)"/>
<path d="M14.113 14.5458C12.1611 16.4238 11.0147 18.9428 10.9024 21.6003C10.7902 24.2578 11.7203 26.8585 13.5073 28.8836C13.828 29.2445 14.3944 29.2445 14.7435 28.9076L28.9989 15.1525C29.0828 15.075 29.1491 14.9816 29.1935 14.8781C29.238 14.7746 29.2597 14.6633 29.2571 14.5513C29.2546 14.4393 29.228 14.329 29.1789 14.2274C29.1299 14.1259 29.0594 14.0353 28.9721 13.9614C26.8699 12.2446 24.1763 11.352 21.4246 11.4602C18.6728 11.5685 16.0634 12.6696 14.113 14.5458Z" fill="url(#paint16_radial_16_324)"/>
<path d="M14.113 14.5458C12.1611 16.4238 11.0147 18.9428 10.9024 21.6003C10.7902 24.2578 11.7203 26.8585 13.5073 28.8836C13.828 29.2445 14.3944 29.2445 14.7435 28.9076L28.9989 15.1525C29.0828 15.075 29.1491 14.9816 29.1935 14.8781C29.238 14.7746 29.2597 14.6633 29.2571 14.5513C29.2546 14.4393 29.228 14.329 29.1789 14.2274C29.1299 14.1259 29.0594 14.0353 28.9721 13.9614C26.8699 12.2446 24.1763 11.352 21.4246 11.4602C18.6728 11.5685 16.0634 12.6696 14.113 14.5458Z" fill="url(#paint17_radial_16_324)"/>
<path d="M14.113 14.5458C12.1611 16.4238 11.0147 18.9428 10.9024 21.6003C10.7902 24.2578 11.7203 26.8585 13.5073 28.8836C13.828 29.2445 14.3944 29.2445 14.7435 28.9076L28.9989 15.1525C29.0828 15.075 29.1491 14.9816 29.1935 14.8781C29.238 14.7746 29.2597 14.6633 29.2571 14.5513C29.2546 14.4393 29.228 14.329 29.1789 14.2274C29.1299 14.1259 29.0594 14.0353 28.9721 13.9614C26.8699 12.2446 24.1763 11.352 21.4246 11.4602C18.6728 11.5685 16.0634 12.6696 14.113 14.5458Z" fill="url(#paint18_linear_16_324)"/>
<g filter="url(#filter1_f_16_324)">
<path d="M29.0808 14.5819L23.9454 19.2294L18.3523 12.5005C22.85 11.1048 27.0484 12.7291 29.0808 14.5819Z" fill="url(#paint19_linear_16_324)"/>
</g>
<path d="M43.6852 14.5578C41.7389 12.6744 39.1283 11.5682 36.3741 11.4599C33.62 11.3516 30.9247 12.2491 28.826 13.9734C28.7385 14.0474 28.668 14.1382 28.6189 14.24C28.5699 14.3418 28.5433 14.4523 28.5409 14.5645C28.5386 14.6768 28.5605 14.7882 28.6053 14.8918C28.6501 14.9954 28.7168 15.0889 28.8011 15.1662L43.0564 28.9197C43.1366 29.0005 43.2332 29.0643 43.3402 29.1072C43.4473 29.1501 43.5623 29.1711 43.6782 29.1688C43.7941 29.1666 43.9082 29.1411 44.0133 29.0941C44.1185 29.0471 44.2124 28.9795 44.2891 28.8956C46.0685 26.8674 46.9939 24.2684 46.882 21.6132C46.7702 18.958 45.6293 16.44 43.6852 14.5578Z" fill="url(#paint20_radial_16_324)"/>
<path d="M43.6852 14.5578C41.7389 12.6744 39.1283 11.5682 36.3741 11.4599C33.62 11.3516 30.9247 12.2491 28.826 13.9734C28.7385 14.0474 28.668 14.1382 28.6189 14.24C28.5699 14.3418 28.5433 14.4523 28.5409 14.5645C28.5386 14.6768 28.5605 14.7882 28.6053 14.8918C28.6501 14.9954 28.7168 15.0889 28.8011 15.1662L43.0564 28.9197C43.1366 29.0005 43.2332 29.0643 43.3402 29.1072C43.4473 29.1501 43.5623 29.1711 43.6782 29.1688C43.7941 29.1666 43.9082 29.1411 44.0133 29.0941C44.1185 29.0471 44.2124 28.9795 44.2891 28.8956C46.0685 26.8674 46.9939 24.2684 46.882 21.6132C46.7702 18.958 45.6293 16.44 43.6852 14.5578Z" fill="url(#paint21_radial_16_324)"/>
<path d="M43.6852 14.5578C41.7389 12.6744 39.1283 11.5682 36.3741 11.4599C33.62 11.3516 30.9247 12.2491 28.826 13.9734C28.7385 14.0474 28.668 14.1382 28.6189 14.24C28.5699 14.3418 28.5433 14.4523 28.5409 14.5645C28.5386 14.6768 28.5605 14.7882 28.6053 14.8918C28.6501 14.9954 28.7168 15.0889 28.8011 15.1662L43.0564 28.9197C43.1366 29.0005 43.2332 29.0643 43.3402 29.1072C43.4473 29.1501 43.5623 29.1711 43.6782 29.1688C43.7941 29.1666 43.9082 29.1411 44.0133 29.0941C44.1185 29.0471 44.2124 28.9795 44.2891 28.8956C46.0685 26.8674 46.9939 24.2684 46.882 21.6132C46.7702 18.958 45.6293 16.44 43.6852 14.5578Z" fill="url(#paint22_radial_16_324)"/>
<path d="M43.6852 14.5578C41.7389 12.6744 39.1283 11.5682 36.3741 11.4599C33.62 11.3516 30.9247 12.2491 28.826 13.9734C28.7385 14.0474 28.668 14.1382 28.6189 14.24C28.5699 14.3418 28.5433 14.4523 28.5409 14.5645C28.5386 14.6768 28.5605 14.7882 28.6053 14.8918C28.6501 14.9954 28.7168 15.0889 28.8011 15.1662L43.0564 28.9197C43.1366 29.0005 43.2332 29.0643 43.3402 29.1072C43.4473 29.1501 43.5623 29.1711 43.6782 29.1688C43.7941 29.1666 43.9082 29.1411 44.0133 29.0941C44.1185 29.0471 44.2124 28.9795 44.2891 28.8956C46.0685 26.8674 46.9939 24.2684 46.882 21.6132C46.7702 18.958 45.6293 16.44 43.6852 14.5578Z" fill="url(#paint23_radial_16_324)"/>
<path d="M43.6852 14.5578C41.7389 12.6744 39.1283 11.5682 36.3741 11.4599C33.62 11.3516 30.9247 12.2491 28.826 13.9734C28.7385 14.0474 28.668 14.1382 28.6189 14.24C28.5699 14.3418 28.5433 14.4523 28.5409 14.5645C28.5386 14.6768 28.5605 14.7882 28.6053 14.8918C28.6501 14.9954 28.7168 15.0889 28.8011 15.1662L43.0564 28.9197C43.1366 29.0005 43.2332 29.0643 43.3402 29.1072C43.4473 29.1501 43.5623 29.1711 43.6782 29.1688C43.7941 29.1666 43.9082 29.1411 44.0133 29.0941C44.1185 29.0471 44.2124 28.9795 44.2891 28.8956C46.0685 26.8674 46.9939 24.2684 46.882 21.6132C46.7702 18.958 45.6293 16.44 43.6852 14.5578Z" fill="url(#paint24_linear_16_324)"/>
<path d="M32.3921 25.7984C33.3369 25.7984 34.2431 25.4363 34.9112 24.7916C35.5793 24.147 35.9546 23.2726 35.9546 22.3609C35.9546 21.4492 35.5793 20.5749 34.9112 19.9303C34.2431 19.2856 33.3369 18.9234 32.3921 18.9234C31.4473 18.9234 30.5411 19.2856 29.873 19.9303C29.2049 20.5749 28.8296 21.4492 28.8296 22.3609C28.8296 23.2726 29.2049 24.147 29.873 24.7916C30.5411 25.4363 31.4473 25.7984 32.3921 25.7984Z" fill="url(#paint25_radial_16_324)"/>
<path d="M32.3921 25.7984C33.3369 25.7984 34.2431 25.4363 34.9112 24.7916C35.5793 24.147 35.9546 23.2726 35.9546 22.3609C35.9546 21.4492 35.5793 20.5749 34.9112 19.9303C34.2431 19.2856 33.3369 18.9234 32.3921 18.9234C31.4473 18.9234 30.5411 19.2856 29.873 19.9303C29.2049 20.5749 28.8296 21.4492 28.8296 22.3609C28.8296 23.2726 29.2049 24.147 29.873 24.7916C30.5411 25.4363 31.4473 25.7984 32.3921 25.7984Z" fill="url(#paint26_radial_16_324)"/>
<path d="M32.3921 25.7984C33.3369 25.7984 34.2431 25.4363 34.9112 24.7916C35.5793 24.147 35.9546 23.2726 35.9546 22.3609C35.9546 21.4492 35.5793 20.5749 34.9112 19.9303C34.2431 19.2856 33.3369 18.9234 32.3921 18.9234C31.4473 18.9234 30.5411 19.2856 29.873 19.9303C29.2049 20.5749 28.8296 21.4492 28.8296 22.3609C28.8296 23.2726 29.2049 24.147 29.873 24.7916C30.5411 25.4363 31.4473 25.7984 32.3921 25.7984Z" fill="url(#paint27_radial_16_324)"/>
<path d="M32.3921 25.7984C33.3369 25.7984 34.2431 25.4363 34.9112 24.7916C35.5793 24.147 35.9546 23.2726 35.9546 22.3609C35.9546 21.4492 35.5793 20.5749 34.9112 19.9303C34.2431 19.2856 33.3369 18.9234 32.3921 18.9234C31.4473 18.9234 30.5411 19.2856 29.873 19.9303C29.2049 20.5749 28.8296 21.4492 28.8296 22.3609C28.8296 23.2726 29.2049 24.147 29.873 24.7916C30.5411 25.4363 31.4473 25.7984 32.3921 25.7984Z" fill="url(#paint28_radial_16_324)"/>
<path d="M32.3921 25.7984C33.3369 25.7984 34.2431 25.4363 34.9112 24.7916C35.5793 24.147 35.9546 23.2726 35.9546 22.3609C35.9546 21.4492 35.5793 20.5749 34.9112 19.9303C34.2431 19.2856 33.3369 18.9234 32.3921 18.9234C31.4473 18.9234 30.5411 19.2856 29.873 19.9303C29.2049 20.5749 28.8296 21.4492 28.8296 22.3609C28.8296 23.2726 29.2049 24.147 29.873 24.7916C30.5411 25.4363 31.4473 25.7984 32.3921 25.7984Z" fill="url(#paint29_radial_16_324)"/>
<path d="M32.3921 25.7984C33.3369 25.7984 34.2431 25.4363 34.9112 24.7916C35.5793 24.147 35.9546 23.2726 35.9546 22.3609C35.9546 21.4492 35.5793 20.5749 34.9112 19.9303C34.2431 19.2856 33.3369 18.9234 32.3921 18.9234C31.4473 18.9234 30.5411 19.2856 29.873 19.9303C29.2049 20.5749 28.8296 21.4492 28.8296 22.3609C28.8296 23.2726 29.2049 24.147 29.873 24.7916C30.5411 25.4363 31.4473 25.7984 32.3921 25.7984Z" fill="url(#paint30_radial_16_324)"/>
<path d="M25.2671 22.3609C26.2119 22.3609 27.1181 21.9988 27.7862 21.3541C28.4543 20.7095 28.8296 19.8351 28.8296 18.9234C28.8296 18.0117 28.4543 17.1374 27.7862 16.4928C27.1181 15.8481 26.2119 15.4859 25.2671 15.4859C24.3223 15.4859 23.4161 15.8481 22.748 16.4928C22.0799 17.1374 21.7046 18.0117 21.7046 18.9234C21.7046 19.8351 22.0799 20.7095 22.748 21.3541C23.4161 21.9988 24.3223 22.3609 25.2671 22.3609Z" fill="url(#paint31_radial_16_324)"/>
<path d="M25.2671 22.3609C26.2119 22.3609 27.1181 21.9988 27.7862 21.3541C28.4543 20.7095 28.8296 19.8351 28.8296 18.9234C28.8296 18.0117 28.4543 17.1374 27.7862 16.4928C27.1181 15.8481 26.2119 15.4859 25.2671 15.4859C24.3223 15.4859 23.4161 15.8481 22.748 16.4928C22.0799 17.1374 21.7046 18.0117 21.7046 18.9234C21.7046 19.8351 22.0799 20.7095 22.748 21.3541C23.4161 21.9988 24.3223 22.3609 25.2671 22.3609Z" fill="url(#paint32_radial_16_324)"/>
<path d="M25.2671 22.3609C26.2119 22.3609 27.1181 21.9988 27.7862 21.3541C28.4543 20.7095 28.8296 19.8351 28.8296 18.9234C28.8296 18.0117 28.4543 17.1374 27.7862 16.4928C27.1181 15.8481 26.2119 15.4859 25.2671 15.4859C24.3223 15.4859 23.4161 15.8481 22.748 16.4928C22.0799 17.1374 21.7046 18.0117 21.7046 18.9234C21.7046 19.8351 22.0799 20.7095 22.748 21.3541C23.4161 21.9988 24.3223 22.3609 25.2671 22.3609Z" fill="url(#paint33_radial_16_324)"/>
<path d="M25.2671 22.3609C26.2119 22.3609 27.1181 21.9988 27.7862 21.3541C28.4543 20.7095 28.8296 19.8351 28.8296 18.9234C28.8296 18.0117 28.4543 17.1374 27.7862 16.4928C27.1181 15.8481 26.2119 15.4859 25.2671 15.4859C24.3223 15.4859 23.4161 15.8481 22.748 16.4928C22.0799 17.1374 21.7046 18.0117 21.7046 18.9234C21.7046 19.8351 22.0799 20.7095 22.748 21.3541C23.4161 21.9988 24.3223 22.3609 25.2671 22.3609Z" fill="url(#paint34_radial_16_324)"/>
<g filter="url(#filter2_f_16_324)">
<path d="M27.2562 19.5454C27.9977 19.1603 28.2442 18.2124 27.8067 17.4285C27.3693 16.6445 26.4136 16.3212 25.6721 16.7064C24.9307 17.0916 24.6842 18.0394 25.1217 18.8234C25.5591 19.6074 26.5148 19.9306 27.2562 19.5454Z" fill="url(#paint35_radial_16_324)"/>
</g>
<g filter="url(#filter3_f_16_324)">
<path d="M33.598 23.1309C34.4932 23.1309 35.2189 22.4307 35.2189 21.5669C35.2189 20.7031 34.4932 20.0028 33.598 20.0028C32.7028 20.0028 31.9771 20.7031 31.9771 21.5669C31.9771 22.4307 32.7028 23.1309 33.598 23.1309Z" fill="url(#paint36_radial_16_324)"/>
</g>
<g filter="url(#filter4_f_16_324)">
<path d="M35.3401 12.8287C37.1694 12.6156 43.4394 13.7912 45.0479 19.0403" stroke="url(#paint37_radial_16_324)" stroke-width="0.5" stroke-linecap="round"/>
</g>
<g filter="url(#filter5_f_16_324)">
<path d="M44.6032 8.56759C46.3066 9.78539 48.0117 10.3503 48.4117 9.82941C48.8118 9.30849 47.7552 7.89897 46.0518 6.68116C44.3484 5.46335 42.6433 4.89841 42.2433 5.41933C41.8433 5.94026 42.8998 7.34978 44.6032 8.56759Z" fill="url(#paint38_radial_16_324)"/>
</g>
<g filter="url(#filter6_f_16_324)">
<path d="M21.1389 9.80669C22.9726 11.0382 25.08 11.1756 25.846 10.1137C26.612 9.05176 25.7464 7.19259 23.9127 5.96112C22.079 4.72965 19.9716 4.5922 19.2056 5.65412C18.4396 6.71605 19.3052 8.57521 21.1389 9.80669Z" fill="url(#paint39_radial_16_324)"/>
</g>
<defs>
<filter id="filter0_f_16_324" x="29.2783" y="22.688" width="4.61377" height="29.3948" filterUnits="userSpaceOnUse" color-interpolation-filters="sRGB">
<feFlood flood-opacity="0" result="BackgroundImageFix"/>
<feBlend mode="normal" in="SourceGraphic" in2="BackgroundImageFix" result="shape"/>
<feGaussianBlur stdDeviation="0.75" result="effect1_foregroundBlur_16_324"/>
</filter>
<filter id="filter1_f_16_324" x="17.8523" y="11.4752" width="11.7285" height="8.2542" filterUnits="userSpaceOnUse" color-interpolation-filters="sRGB">
<feFlood flood-opacity="0" result="BackgroundImageFix"/>
<feBlend mode="normal" in="SourceGraphic" in2="BackgroundImageFix" result="shape"/>
<feGaussianBlur stdDeviation="0.25" result="effect1_foregroundBlur_16_324"/>
</filter>
<filter id="filter2_f_16_324" x="23.9053" y="15.544" width="5.11792" height="5.16393" filterUnits="userSpaceOnUse" color-interpolation-filters="sRGB">
<feFlood flood-opacity="0" result="BackgroundImageFix"/>
<feBlend mode="normal" in="SourceGraphic" in2="BackgroundImageFix" result="shape"/>
<feGaussianBlur stdDeviation="0.5" result="effect1_foregroundBlur_16_324"/>
</filter>
<filter id="filter3_f_16_324" x="30.9771" y="19.0028" width="5.24194" height="5.12813" filterUnits="userSpaceOnUse" color-interpolation-filters="sRGB">
<feFlood flood-opacity="0" result="BackgroundImageFix"/>
<feBlend mode="normal" in="SourceGraphic" in2="BackgroundImageFix" result="shape"/>
<feGaussianBlur stdDeviation="0.5" result="effect1_foregroundBlur_16_324"/>
</filter>
<filter id="filter4_f_16_324" x="34.5901" y="12.0554" width="11.2078" height="7.735" filterUnits="userSpaceOnUse" color-interpolation-filters="sRGB">
<feFlood flood-opacity="0" result="BackgroundImageFix"/>
<feBlend mode="normal" in="SourceGraphic" in2="BackgroundImageFix" result="shape"/>
<feGaussianBlur stdDeviation="0.25" result="effect1_foregroundBlur_16_324"/>
</filter>
<filter id="filter5_f_16_324" x="41.4087" y="4.47545" width="7.83765" height="6.29784" filterUnits="userSpaceOnUse" color-interpolation-filters="sRGB">
<feFlood flood-opacity="0" result="BackgroundImageFix"/>
<feBlend mode="normal" in="SourceGraphic" in2="BackgroundImageFix" result="shape"/>
<feGaussianBlur stdDeviation="0.375" result="effect1_foregroundBlur_16_324"/>
</filter>
<filter id="filter6_f_16_324" x="18.1765" y="4.18953" width="8.69849" height="7.38874" filterUnits="userSpaceOnUse" color-interpolation-filters="sRGB">
<feFlood flood-opacity="0" result="BackgroundImageFix"/>
<feBlend mode="normal" in="SourceGraphic" in2="BackgroundImageFix" result="shape"/>
<feGaussianBlur stdDeviation="0.375" result="effect1_foregroundBlur_16_324"/>
</filter>
<linearGradient id="paint0_linear_16_324" x1="23.5163" y1="32.6253" x2="34.145" y2="32.6253" gradientUnits="userSpaceOnUse">
<stop stop-color="#734951"/>
<stop offset="0.385" stop-color="#924F67"/>
<stop offset="1" stop-color="#A97270"/>
</linearGradient>
<linearGradient id="paint1_linear_16_324" x1="31.612" y1="17.3869" x2="31.2272" y2="28.5357" gradientUnits="userSpaceOnUse">
<stop stop-color="#734951"/>
<stop offset="1" stop-color="#734951" stop-opacity="0"/>
</linearGradient>
<radialGradient id="paint2_radial_16_324" cx="0" cy="0" r="1" gradientUnits="userSpaceOnUse" gradientTransform="translate(29.5084 15.5375) rotate(61.2233) scale(9.112 2.67323)">
<stop stop-color="#4B2231"/>
<stop offset="1" stop-color="#4B2231" stop-opacity="0"/>
</radialGradient>
<radialGradient id="paint3_radial_16_324" cx="0" cy="0" r="1" gradientUnits="userSpaceOnUse" gradientTransform="translate(28.8309 15.2419) rotate(135.446) scale(9.91493 1.99266)">
<stop stop-color="#4B2231"/>
<stop offset="1" stop-color="#4B2231" stop-opacity="0"/>
</radialGradient>
<radialGradient id="paint4_radial_16_324" cx="0" cy="0" r="1" gradientUnits="userSpaceOnUse" gradientTransform="translate(29.5068 21.3883) rotate(118.843) scale(7.35312 5.32094)">
<stop stop-color="#6C3250"/>
<stop offset="1" stop-color="#6C3250" stop-opacity="0"/>
</radialGradient>
<linearGradient id="paint5_linear_16_324" x1="31.5852" y1="1.46609" x2="35.5471" y2="39.3381" gradientUnits="userSpaceOnUse">
<stop stop-color="#AE7779" stop-opacity="0"/>
<stop offset="1" stop-color="#B68087"/>
</linearGradient>
<radialGradient id="paint6_radial_16_324" cx="0" cy="0" r="1" gradientUnits="userSpaceOnUse" gradientTransform="translate(21.913 7.41961) rotate(91.4602) scale(9.0135 21.714)">
<stop stop-color="#9ED141"/>
<stop offset="1" stop-color="#799D4B"/>
</radialGradient>
<radialGradient id="paint7_radial_16_324" cx="0" cy="0" r="1" gradientUnits="userSpaceOnUse" gradientTransform="translate(19.6259 9.62155) rotate(90) scale(4.55867 12.4114)">
<stop stop-color="#9AC644"/>
<stop offset="1" stop-color="#9AC644" stop-opacity="0"/>
</radialGradient>
<linearGradient id="paint8_linear_16_324" x1="28.5963" y1="14.7297" x2="26.1549" y2="10.5361" gradientUnits="userSpaceOnUse">
<stop stop-color="#5D9501"/>
<stop offset="1" stop-color="#5D9501" stop-opacity="0"/>
</linearGradient>
<linearGradient id="paint9_linear_16_324" x1="15.5807" y1="14.9428" x2="15.5807" y2="13.0969" gradientUnits="userSpaceOnUse">
<stop stop-color="#9C99A6"/>
<stop offset="1" stop-color="#9C99A6" stop-opacity="0"/>
</linearGradient>
<radialGradient id="paint10_radial_16_324" cx="0" cy="0" r="1" gradientUnits="userSpaceOnUse" gradientTransform="translate(16.5876 14.1819) rotate(161.733) scale(7.3644 2.85852)">
<stop stop-color="#66981B"/>
<stop offset="1" stop-color="#66981B" stop-opacity="0"/>
</radialGradient>
<radialGradient id="paint11_radial_16_324" cx="0" cy="0" r="1" gradientUnits="userSpaceOnUse" gradientTransform="translate(21.9458 12.2841) rotate(176.529) scale(16.0721 12.7576)">
<stop offset="0.747" stop-color="#82AB5A" stop-opacity="0"/>
<stop offset="0.984" stop-color="#82AB5A"/>
</radialGradient>
<radialGradient id="paint12_radial_16_324" cx="0" cy="0" r="1" gradientUnits="userSpaceOnUse" gradientTransform="translate(47.9477 10.4895) rotate(180) scale(26.0481 26.2475)">
<stop stop-color="#A3D350"/>
<stop offset="1" stop-color="#679E15"/>
</radialGradient>
<radialGradient id="paint13_radial_16_324" cx="0" cy="0" r="1" gradientUnits="userSpaceOnUse" gradientTransform="translate(46.6848 9.18499) rotate(180) scale(14.8623 8.04248)">
<stop stop-color="#A3CF56"/>
<stop offset="1" stop-color="#A3CF56" stop-opacity="0"/>
</radialGradient>
<linearGradient id="paint14_linear_16_324" x1="44.4582" y1="15.6234" x2="44.4582" y2="13.1587" gradientUnits="userSpaceOnUse">
<stop stop-color="#95A096"/>
<stop offset="1" stop-color="#95A096" stop-opacity="0"/>
</linearGradient>
<radialGradient id="paint15_radial_16_324" cx="0" cy="0" r="1" gradientUnits="userSpaceOnUse" gradientTransform="translate(24.5867 18.5848) rotate(119.479) scale(14.9311 13.8231)">
<stop stop-color="#65943F"/>
<stop offset="1" stop-color="#4C712C"/>
</radialGradient>
<radialGradient id="paint16_radial_16_324" cx="0" cy="0" r="1" gradientUnits="userSpaceOnUse" gradientTransform="translate(21.5438 20.4825) rotate(135.691) scale(8.4693 2.55135)">
<stop stop-color="#69785C"/>
<stop offset="1" stop-color="#69785C" stop-opacity="0"/>
</radialGradient>
<radialGradient id="paint17_radial_16_324" cx="0" cy="0" r="1" gradientUnits="userSpaceOnUse" gradientTransform="translate(23.5393 20.1722) rotate(134.832) scale(4.65143 4.40481)">
<stop stop-color="#4E5E45"/>
<stop offset="1" stop-color="#4E5E45" stop-opacity="0"/>
</radialGradient>
<linearGradient id="paint18_linear_16_324" x1="20.7588" y1="23.32" x2="20.1557" y2="22.7485" gradientUnits="userSpaceOnUse">
<stop stop-color="#617247"/>
<stop offset="1" stop-color="#617247" stop-opacity="0"/>
</linearGradient>
<linearGradient id="paint19_linear_16_324" x1="26.7562" y1="14.8242" x2="20.3744" y2="16.1477" gradientUnits="userSpaceOnUse">
<stop stop-color="#7C9D5A"/>
<stop offset="1" stop-color="#7C9D5A" stop-opacity="0"/>
</linearGradient>
<radialGradient id="paint20_radial_16_324" cx="0" cy="0" r="1" gradientUnits="userSpaceOnUse" gradientTransform="translate(41.3874 16.6839) rotate(137.124) scale(8.02651 13.9167)">
<stop stop-color="#74A550"/>
<stop offset="1" stop-color="#517D2A"/>
</radialGradient>
<radialGradient id="paint21_radial_16_324" cx="0" cy="0" r="1" gradientUnits="userSpaceOnUse" gradientTransform="translate(36.3928 25.4117) rotate(-46.759) scale(3.969 16.3835)">
<stop stop-color="#576043"/>
<stop offset="1" stop-color="#576043" stop-opacity="0"/>
</radialGradient>
<radialGradient id="paint22_radial_16_324" cx="0" cy="0" r="1" gradientUnits="userSpaceOnUse" gradientTransform="translate(23.6301 13.1501) rotate(29.5206) scale(26.7316 24.3113)">
<stop offset="0.757" stop-color="#6C9543" stop-opacity="0"/>
<stop offset="1" stop-color="#6C9543"/>
</radialGradient>
<radialGradient id="paint23_radial_16_324" cx="0" cy="0" r="1" gradientUnits="userSpaceOnUse" gradientTransform="translate(34.5333 21.691) rotate(-103.684) scale(4.57394 2.38977)">
<stop stop-color="#3E6A0C"/>
<stop offset="1" stop-color="#3E6A0C" stop-opacity="0"/>
</radialGradient>
<linearGradient id="paint24_linear_16_324" x1="34.8912" y1="23.1516" x2="36.3822" y2="21.6081" gradientUnits="userSpaceOnUse">
<stop stop-color="#394B28"/>
<stop offset="1" stop-color="#394B28" stop-opacity="0"/>
</linearGradient>
<radialGradient id="paint25_radial_16_324" cx="0" cy="0" r="1" gradientUnits="userSpaceOnUse" gradientTransform="translate(33.3248 22.3598) rotate(131.636) scale(5.15259 6.53343)">
<stop stop-color="#B97056"/>
<stop offset="1" stop-color="#82582F"/>
</radialGradient>
<radialGradient id="paint26_radial_16_324" cx="0" cy="0" r="1" gradientUnits="userSpaceOnUse" gradientTransform="translate(31.7117 25.7984) rotate(-83.1779) scale(3.74882 4.26137)">
<stop stop-color="#B5547D"/>
<stop offset="1" stop-color="#B5547D" stop-opacity="0"/>
</radialGradient>
<radialGradient id="paint27_radial_16_324" cx="0" cy="0" r="1" gradientUnits="userSpaceOnUse" gradientTransform="translate(34.2293 25.6063) rotate(-126.63) scale(0.76969 2.5115)">
<stop stop-color="#AD619B"/>
<stop offset="1" stop-color="#AD619B" stop-opacity="0"/>
</radialGradient>
<radialGradient id="paint28_radial_16_324" cx="0" cy="0" r="1" gradientUnits="userSpaceOnUse" gradientTransform="translate(28.8991 24.5455) rotate(-31.9788) scale(1.11559 1.81233)">
<stop stop-color="#AD619B"/>
<stop offset="1" stop-color="#AD619B" stop-opacity="0"/>
</radialGradient>
<radialGradient id="paint29_radial_16_324" cx="0" cy="0" r="1" gradientUnits="userSpaceOnUse" gradientTransform="translate(29.282 24.7569) rotate(-33.0055) scale(7.95664 6.96906)">
<stop offset="0.817" stop-color="#AC794F" stop-opacity="0"/>
<stop offset="1" stop-color="#AC794F"/>
</radialGradient>
<radialGradient id="paint30_radial_16_324" cx="0" cy="0" r="1" gradientUnits="userSpaceOnUse" gradientTransform="translate(28.8296 20.7745) rotate(90) scale(2.7361 0.960361)">
<stop stop-color="#893E2F"/>
<stop offset="1" stop-color="#893E2F" stop-opacity="0"/>
</radialGradient>
<radialGradient id="paint31_radial_16_324" cx="0" cy="0" r="1" gradientUnits="userSpaceOnUse" gradientTransform="translate(26.2012 18.9232) rotate(131.636) scale(5.15259 6.53343)">
<stop stop-color="#AA674F"/>
<stop offset="1" stop-color="#82582F"/>
</radialGradient>
<radialGradient id="paint32_radial_16_324" cx="0" cy="0" r="1" gradientUnits="userSpaceOnUse" gradientTransform="translate(24.5867 22.3609) rotate(-83.1779) scale(3.74882 4.26136)">
<stop stop-color="#AC4D77"/>
<stop offset="1" stop-color="#AC4D77" stop-opacity="0"/>
</radialGradient>
<radialGradient id="paint33_radial_16_324" cx="0" cy="0" r="1" gradientUnits="userSpaceOnUse" gradientTransform="translate(24.1413 22.4778) rotate(-71.6528) scale(0.707352 1.67079)">
<stop stop-color="#AD619B"/>
<stop offset="1" stop-color="#AD619B" stop-opacity="0"/>
</radialGradient>
<radialGradient id="paint34_radial_16_324" cx="0" cy="0" r="1" gradientUnits="userSpaceOnUse" gradientTransform="translate(22.1588 21.3211) rotate(-33.0055) scale(7.95664 6.96906)">
<stop offset="0.773" stop-color="#AC794F" stop-opacity="0"/>
<stop offset="1" stop-color="#AC794F"/>
</radialGradient>
<radialGradient id="paint35_radial_16_324" cx="0" cy="0" r="1" gradientUnits="userSpaceOnUse" gradientTransform="translate(26.9294 17.4671) rotate(121.783) scale(4.45029 4.74102)">
<stop stop-color="#D79F87"/>
<stop offset="1" stop-color="#D79F87" stop-opacity="0"/>
</radialGradient>
<radialGradient id="paint36_radial_16_324" cx="0" cy="0" r="1" gradientUnits="userSpaceOnUse" gradientTransform="translate(34.3803 21.2117) rotate(152.291) scale(4.7089 4.61642)">
<stop stop-color="#D79F87"/>
<stop offset="1" stop-color="#D79F87" stop-opacity="0"/>
</radialGradient>
<radialGradient id="paint37_radial_16_324" cx="0" cy="0" r="1" gradientUnits="userSpaceOnUse" gradientTransform="translate(42.1649 13.7927) rotate(133.085) scale(3.00578 9.06041)">
<stop stop-color="#80B35C"/>
<stop offset="1" stop-color="#80B35C" stop-opacity="0"/>
</radialGradient>
<radialGradient id="paint38_radial_16_324" cx="0" cy="0" r="1" gradientUnits="userSpaceOnUse" gradientTransform="translate(48.5278 9.45888) rotate(-142.335) scale(7.00947 1.29361)">
<stop stop-color="#C0EF77"/>
<stop offset="1" stop-color="#C0EF77" stop-opacity="0"/>
</radialGradient>
<radialGradient id="paint39_radial_16_324" cx="0" cy="0" r="1" gradientUnits="userSpaceOnUse" gradientTransform="translate(27.5251 10.5147) rotate(-153.267) scale(9.8629 3.38856)">
<stop stop-color="#B8E172"/>
<stop offset="1" stop-color="#B8E172" stop-opacity="0"/>
</radialGradient>
</defs>
</svg>
