<svg width="55" height="32" viewBox="0 0 55 32" fill="none" xmlns="http://www.w3.org/2000/svg">
<path d="M4.58325 21.3333V25.3333M27.4999 17.3333V9.33333M27.4999 9.33333C27.4999 8.62609 27.9828 7.94781 28.8423 7.44771C29.7019 6.94762 30.8677 6.66666 32.0833 6.66666H41.2499C42.4655 6.66666 43.6313 6.94762 44.4908 7.44771C45.3504 7.94781 45.8333 8.62609 45.8333 9.33333V12M27.4999 9.33333C27.4999 8.62609 27.017 7.94781 26.1575 7.44771C25.2979 6.94762 24.1322 6.66666 22.9166 6.66666H13.7499C12.5343 6.66666 11.3686 6.94762 10.509 7.44771C9.64947 7.94781 9.16659 8.62609 9.16659 9.33333V12" stroke="#A0B8CD" stroke-width="1.5" stroke-linecap="round" stroke-linejoin="round"/>
<path d="M50.4166 21.3333V25.3333M45.8332 12C44.6177 12 43.4519 12.281 42.5923 12.781C41.7328 13.2811 41.2499 13.9594 41.2499 14.6667V17.3333H13.7499V14.6667C13.7499 13.9594 13.267 13.2811 12.4075 12.781C11.5479 12.281 10.3822 12 9.16658 12C7.95101 12 6.78522 12.281 5.92568 12.781C5.06614 13.2811 4.58325 13.9594 4.58325 14.6667V22.6667H50.4166V14.6667C50.4166 13.9594 49.9337 13.2811 49.0742 12.781C48.2146 12.281 47.0488 12 45.8332 12Z" stroke="#A0B8CD" stroke-width="1.5" stroke-linecap="round" stroke-linejoin="round"/>
</svg>
