<svg width="16" height="101" viewBox="0 0 16 101" fill="none" xmlns="http://www.w3.org/2000/svg">
<path d="M15.7737 101V92.0556H13.1937V98.3946H9.36919V93.0198H6.81186V98.3946H2.76097V92.2607H0.181046V101H15.7737ZM0.181046 78.7972V81.4231H10.3196L0.181046 86.8185V89.2597H15.7737V86.6544H5.52194L15.7737 81.1974V78.7972H0.181046ZM2.82885 76.4658V72.486H15.7737V69.8396H2.82885V65.8597H0.181046V76.4658H2.82885ZM2.76097 57.9776C2.76097 56.6647 4.09619 56.0698 5.22773 56.0698C6.3819 56.0698 7.64921 56.6647 7.64921 58.0597V60.8908H2.76097V57.9776ZM10.116 56.9314C9.68598 54.408 7.44555 53.3413 5.22773 53.3413C2.69308 53.3413 0.181046 54.7363 0.181046 57.8545V63.5166H15.7737V60.8908H10.2291V59.8035L15.7737 56.4801V53.3208L10.116 56.9314ZM15.7737 41.6918V38.9224L0.181046 44.2152V47.0462L15.7737 52.339V49.549L11.9943 48.2566V42.9843L15.7737 41.6918ZM3.50775 45.6307L9.45966 43.8459V47.3745L3.50775 45.6307ZM0.181046 26.6897V29.3156H10.3196L0.181046 34.711V37.1522H15.7737V34.5469H5.52194L15.7737 29.0899V26.6897H0.181046ZM11.157 13.2393C12.4243 14.0599 13.2616 15.3729 13.2616 16.9115C13.2616 19.4759 10.9307 21.4042 8.0113 21.4042C5.11455 21.4042 2.73828 19.4759 2.73828 16.9115C2.73828 15.4139 3.55308 14.142 4.72988 13.3214L3.07778 11.2289C1.17679 12.4598 0 14.5113 0 16.9115C0 20.9324 3.59829 24.0301 8.0113 24.0301C12.4017 24.0301 16 20.9324 16 16.9115C16 14.4497 14.7553 12.3982 12.8317 11.1674L11.157 13.2393ZM15.7737 8.94444V0H13.1937V6.33909H9.36919V0.964223H6.81186V6.33909H2.76097V0.205169H0.181046V8.94444H15.7737Z" fill="#AFC0CD"/>
</svg>
