<svg width="25" height="25" viewBox="0 0 25 25" fill="none" xmlns="http://www.w3.org/2000/svg">
<path d="M21.875 11.8176V7.42188C21.8743 6.80049 21.6271 6.20476 21.1877 5.76538C20.7484 5.32599 20.1526 5.07884 19.5312 5.07812H5.46875C4.84737 5.07884 4.25164 5.32599 3.81225 5.76538C3.37287 6.20476 3.12571 6.80049 3.125 7.42188V11.8176C2.45462 11.9917 1.86089 12.3832 1.43679 12.9308C1.01268 13.4784 0.782133 14.1511 0.78125 14.8438V20.3125C0.781715 20.7268 0.946485 21.1239 1.23941 21.4168C1.53233 21.7098 1.92949 21.8745 2.34375 21.875H3.125V24.2188H4.6875V21.875H20.3125V24.2188H21.875V21.875H22.6562C23.0705 21.8745 23.4677 21.7098 23.7606 21.4168C24.0535 21.1239 24.2183 20.7268 24.2188 20.3125V14.8438C24.2179 14.1511 23.9873 13.4784 23.5632 12.9308C23.1391 12.3832 22.5454 11.9917 21.875 11.8176ZM5.46875 20.3125H2.34375V14.8438C2.34375 14.4293 2.50837 14.0319 2.8014 13.7389C3.09442 13.4459 3.49185 13.2812 3.90625 13.2812C4.32065 13.2812 4.71808 13.4459 5.0111 13.7389C5.30413 14.0319 5.46875 14.4293 5.46875 14.8438V20.3125ZM17.9688 20.3125H7.03125V15.625H17.9688V20.3125ZM18.0676 14.0625H6.93237C6.7917 13.5225 6.50951 13.0297 6.1149 12.6351C5.72029 12.2405 5.22754 11.9583 4.6875 11.8176V7.42188C4.68775 7.21475 4.77013 7.01618 4.91659 6.86972C5.06305 6.72326 5.26162 6.64087 5.46875 6.64062H19.5312C19.7384 6.64087 19.9369 6.72326 20.0834 6.86972C20.2299 7.01618 20.3123 7.21475 20.3125 7.42188V11.8176C19.7725 11.9583 19.2797 12.2405 18.8851 12.6351C18.4905 13.0297 18.2083 13.5225 18.0676 14.0625ZM22.6562 20.3125H19.5312V14.8438C19.5312 14.4293 19.6959 14.0319 19.9889 13.7389C20.2819 13.4459 20.6793 13.2812 21.0938 13.2812C21.5082 13.2812 21.9056 13.4459 22.1986 13.7389C22.4916 14.0319 22.6562 14.4293 22.6562 14.8438L22.6572 20.3125H22.6562Z" fill="#A0B8CD"/>
</svg>
