<svg width="32" height="32" viewBox="0 0 32 32" fill="none" xmlns="http://www.w3.org/2000/svg">
<path d="M19.17 7.96899H13.2V29.999H19.17V7.96899Z" fill="url(#paint0_linear_16_324)"/>
<path d="M19.17 7.96899H13.2V29.999H19.17V7.96899Z" fill="url(#paint1_linear_16_324)"/>
<path d="M19.17 7.96899H13.2V29.999H19.17V7.96899Z" fill="url(#paint2_radial_16_324)"/>
<path d="M19.17 7.96899H13.2V29.999H19.17V7.96899Z" fill="url(#paint3_radial_16_324)"/>
<path d="M19.17 7.96899H13.2V29.999H19.17V7.96899Z" fill="url(#paint4_radial_16_324)"/>
<g filter="url(#filter0_f_16_324)">
<path d="M17.2791 14.073H18.1851V29.43H17.2791V14.073Z" fill="url(#paint5_linear_16_324)"/>
</g>
<path d="M10.2101 2.09C8.66309 2.09084 7.17299 2.67333 6.03557 3.72184C4.89814 4.77035 4.19655 6.20821 4.07006 7.75C4.06588 7.81505 4.07528 7.88025 4.09765 7.94147C4.12003 8.0027 4.1549 8.05859 4.20004 8.10561C4.24518 8.15264 4.29961 8.18975 4.35987 8.21461C4.42012 8.23947 4.48489 8.25152 4.55006 8.25H15.8701C15.9352 8.25152 16 8.23947 16.0603 8.21461C16.1205 8.18975 16.1749 8.15264 16.2201 8.10561C16.2652 8.05859 16.3001 8.0027 16.3225 7.94147C16.3448 7.88025 16.3542 7.81505 16.3501 7.75C16.2251 6.20761 15.524 4.76881 14.3863 3.71999C13.2485 2.67116 11.7575 2.08922 10.2101 2.09Z" fill="url(#paint6_radial_16_324)"/>
<path d="M10.2101 2.09C8.66309 2.09084 7.17299 2.67333 6.03557 3.72184C4.89814 4.77035 4.19655 6.20821 4.07006 7.75C4.06588 7.81505 4.07528 7.88025 4.09765 7.94147C4.12003 8.0027 4.1549 8.05859 4.20004 8.10561C4.24518 8.15264 4.29961 8.18975 4.35987 8.21461C4.42012 8.23947 4.48489 8.25152 4.55006 8.25H15.8701C15.9352 8.25152 16 8.23947 16.0603 8.21461C16.1205 8.18975 16.1749 8.15264 16.2201 8.10561C16.2652 8.05859 16.3001 8.0027 16.3225 7.94147C16.3448 7.88025 16.3542 7.81505 16.3501 7.75C16.2251 6.20761 15.524 4.76881 14.3863 3.71999C13.2485 2.67116 11.7575 2.08922 10.2101 2.09Z" fill="url(#paint7_radial_16_324)"/>
<path d="M10.2101 2.09C8.66309 2.09084 7.17299 2.67333 6.03557 3.72184C4.89814 4.77035 4.19655 6.20821 4.07006 7.75C4.06588 7.81505 4.07528 7.88025 4.09765 7.94147C4.12003 8.0027 4.1549 8.05859 4.20004 8.10561C4.24518 8.15264 4.29961 8.18975 4.35987 8.21461C4.42012 8.23947 4.48489 8.25152 4.55006 8.25H15.8701C15.9352 8.25152 16 8.23947 16.0603 8.21461C16.1205 8.18975 16.1749 8.15264 16.2201 8.10561C16.2652 8.05859 16.3001 8.0027 16.3225 7.94147C16.3448 7.88025 16.3542 7.81505 16.3501 7.75C16.2251 6.20761 15.524 4.76881 14.3863 3.71999C13.2485 2.67116 11.7575 2.08922 10.2101 2.09Z" fill="url(#paint8_linear_16_324)"/>
<path d="M10.2101 2.09C8.66309 2.09084 7.17299 2.67333 6.03557 3.72184C4.89814 4.77035 4.19655 6.20821 4.07006 7.75C4.06588 7.81505 4.07528 7.88025 4.09765 7.94147C4.12003 8.0027 4.1549 8.05859 4.20004 8.10561C4.24518 8.15264 4.29961 8.18975 4.35987 8.21461C4.42012 8.23947 4.48489 8.25152 4.55006 8.25H15.8701C15.9352 8.25152 16 8.23947 16.0603 8.21461C16.1205 8.18975 16.1749 8.15264 16.2201 8.10561C16.2652 8.05859 16.3001 8.0027 16.3225 7.94147C16.3448 7.88025 16.3542 7.81505 16.3501 7.75C16.2251 6.20761 15.524 4.76881 14.3863 3.71999C13.2485 2.67116 11.7575 2.08922 10.2101 2.09Z" fill="url(#paint9_linear_16_324)"/>
<path d="M10.2101 2.09C8.66309 2.09084 7.17299 2.67333 6.03557 3.72184C4.89814 4.77035 4.19655 6.20821 4.07006 7.75C4.06588 7.81505 4.07528 7.88025 4.09765 7.94147C4.12003 8.0027 4.1549 8.05859 4.20004 8.10561C4.24518 8.15264 4.29961 8.18975 4.35987 8.21461C4.42012 8.23947 4.48489 8.25152 4.55006 8.25H15.8701C15.9352 8.25152 16 8.23947 16.0603 8.21461C16.1205 8.18975 16.1749 8.15264 16.2201 8.10561C16.2652 8.05859 16.3001 8.0027 16.3225 7.94147C16.3448 7.88025 16.3542 7.81505 16.3501 7.75C16.2251 6.20761 15.524 4.76881 14.3863 3.71999C13.2485 2.67116 11.7575 2.08922 10.2101 2.09Z" fill="url(#paint10_radial_16_324)"/>
<path d="M10.2101 2.09C8.66309 2.09084 7.17299 2.67333 6.03557 3.72184C4.89814 4.77035 4.19655 6.20821 4.07006 7.75C4.06588 7.81505 4.07528 7.88025 4.09765 7.94147C4.12003 8.0027 4.1549 8.05859 4.20004 8.10561C4.24518 8.15264 4.29961 8.18975 4.35987 8.21461C4.42012 8.23947 4.48489 8.25152 4.55006 8.25H15.8701C15.9352 8.25152 16 8.23947 16.0603 8.21461C16.1205 8.18975 16.1749 8.15264 16.2201 8.10561C16.2652 8.05859 16.3001 8.0027 16.3225 7.94147C16.3448 7.88025 16.3542 7.81505 16.3501 7.75C16.2251 6.20761 15.524 4.76881 14.3863 3.71999C13.2485 2.67116 11.7575 2.08922 10.2101 2.09Z" fill="url(#paint11_radial_16_324)"/>
<path d="M22.16 2.09C20.613 2.09084 19.1229 2.67333 17.9855 3.72184C16.8481 4.77035 16.1465 6.20821 16.02 7.75C16.0158 7.81505 16.0252 7.88025 16.0476 7.94147C16.07 8.0027 16.1048 8.05859 16.15 8.10562C16.1951 8.15264 16.2496 8.18976 16.3098 8.21461C16.3701 8.23947 16.4348 8.25152 16.5 8.25H27.82C27.8852 8.25152 27.9499 8.23947 28.0102 8.21461C28.0705 8.18976 28.1249 8.15264 28.17 8.10562C28.2152 8.05859 28.25 8.0027 28.2724 7.94147C28.2948 7.88025 28.3042 7.81505 28.3 7.75C28.1753 6.20752 27.4743 4.76859 26.3365 3.71972C25.1986 2.67085 23.7075 2.08899 22.16 2.09Z" fill="url(#paint12_radial_16_324)"/>
<path d="M22.16 2.09C20.613 2.09084 19.1229 2.67333 17.9855 3.72184C16.8481 4.77035 16.1465 6.20821 16.02 7.75C16.0158 7.81505 16.0252 7.88025 16.0476 7.94147C16.07 8.0027 16.1048 8.05859 16.15 8.10562C16.1951 8.15264 16.2496 8.18976 16.3098 8.21461C16.3701 8.23947 16.4348 8.25152 16.5 8.25H27.82C27.8852 8.25152 27.9499 8.23947 28.0102 8.21461C28.0705 8.18976 28.1249 8.15264 28.17 8.10562C28.2152 8.05859 28.25 8.0027 28.2724 7.94147C28.2948 7.88025 28.3042 7.81505 28.3 7.75C28.1753 6.20752 27.4743 4.76859 26.3365 3.71972C25.1986 2.67085 23.7075 2.08899 22.16 2.09Z" fill="url(#paint13_radial_16_324)"/>
<path d="M22.16 2.09C20.613 2.09084 19.1229 2.67333 17.9855 3.72184C16.8481 4.77035 16.1465 6.20821 16.02 7.75C16.0158 7.81505 16.0252 7.88025 16.0476 7.94147C16.07 8.0027 16.1048 8.05859 16.15 8.10562C16.1951 8.15264 16.2496 8.18976 16.3098 8.21461C16.3701 8.23947 16.4348 8.25152 16.5 8.25H27.82C27.8852 8.25152 27.9499 8.23947 28.0102 8.21461C28.0705 8.18976 28.1249 8.15264 28.17 8.10562C28.2152 8.05859 28.25 8.0027 28.2724 7.94147C28.2948 7.88025 28.3042 7.81505 28.3 7.75C28.1753 6.20752 27.4743 4.76859 26.3365 3.71972C25.1986 2.67085 23.7075 2.08899 22.16 2.09Z" fill="url(#paint14_linear_16_324)"/>
<path d="M7.923 8.463C6.8272 9.55567 6.1836 11.0213 6.12058 12.5675C6.05757 14.1137 6.57976 15.6268 7.583 16.805C7.763 17.015 8.081 17.015 8.277 16.819L16.28 8.816C16.3271 8.77094 16.3643 8.71657 16.3893 8.65635C16.4142 8.59613 16.4264 8.53137 16.425 8.4662C16.4236 8.40103 16.4086 8.33686 16.3811 8.27777C16.3535 8.21869 16.314 8.16598 16.265 8.123C15.0848 7.12416 13.5726 6.60482 12.0278 6.66778C10.4829 6.73075 9.01799 7.37143 7.923 8.463Z" fill="url(#paint15_radial_16_324)"/>
<path d="M7.923 8.463C6.8272 9.55567 6.1836 11.0213 6.12058 12.5675C6.05757 14.1137 6.57976 15.6268 7.583 16.805C7.763 17.015 8.081 17.015 8.277 16.819L16.28 8.816C16.3271 8.77094 16.3643 8.71657 16.3893 8.65635C16.4142 8.59613 16.4264 8.53137 16.425 8.4662C16.4236 8.40103 16.4086 8.33686 16.3811 8.27777C16.3535 8.21869 16.314 8.16598 16.265 8.123C15.0848 7.12416 13.5726 6.60482 12.0278 6.66778C10.4829 6.73075 9.01799 7.37143 7.923 8.463Z" fill="url(#paint16_radial_16_324)"/>
<path d="M7.923 8.463C6.8272 9.55567 6.1836 11.0213 6.12058 12.5675C6.05757 14.1137 6.57976 15.6268 7.583 16.805C7.763 17.015 8.081 17.015 8.277 16.819L16.28 8.816C16.3271 8.77094 16.3643 8.71657 16.3893 8.65635C16.4142 8.59613 16.4264 8.53137 16.425 8.4662C16.4236 8.40103 16.4086 8.33686 16.3811 8.27777C16.3535 8.21869 16.314 8.16598 16.265 8.123C15.0848 7.12416 13.5726 6.60482 12.0278 6.66778C10.4829 6.73075 9.01799 7.37143 7.923 8.463Z" fill="url(#paint17_radial_16_324)"/>
<path d="M7.923 8.463C6.8272 9.55567 6.1836 11.0213 6.12058 12.5675C6.05757 14.1137 6.57976 15.6268 7.583 16.805C7.763 17.015 8.081 17.015 8.277 16.819L16.28 8.816C16.3271 8.77094 16.3643 8.71657 16.3893 8.65635C16.4142 8.59613 16.4264 8.53137 16.425 8.4662C16.4236 8.40103 16.4086 8.33686 16.3811 8.27777C16.3535 8.21869 16.314 8.16598 16.265 8.123C15.0848 7.12416 13.5726 6.60482 12.0278 6.66778C10.4829 6.73075 9.01799 7.37143 7.923 8.463Z" fill="url(#paint18_linear_16_324)"/>
<g filter="url(#filter1_f_16_324)">
<path d="M16.326 8.484L13.443 11.188L10.303 7.273C12.828 6.461 15.185 7.406 16.326 8.484Z" fill="url(#paint19_linear_16_324)"/>
</g>
<path d="M24.5251 8.46999C23.4324 7.3742 21.9668 6.7306 20.4206 6.66758C18.8744 6.60456 17.3613 7.12675 16.1831 8.12999C16.134 8.17305 16.0944 8.22587 16.0668 8.28509C16.0393 8.3443 16.0244 8.40861 16.023 8.47391C16.0217 8.5392 16.034 8.60406 16.0592 8.66434C16.0843 8.72461 16.1218 8.77899 16.1691 8.82399L24.1721 16.826C24.2171 16.873 24.2713 16.9102 24.3314 16.9351C24.3915 16.9601 24.4561 16.9723 24.5212 16.9709C24.5862 16.9696 24.6503 16.9548 24.7093 16.9275C24.7683 16.9001 24.821 16.8608 24.8641 16.812C25.8631 15.6319 26.3826 14.1198 26.3198 12.5749C26.257 11.0301 25.6165 9.56511 24.5251 8.46999Z" fill="url(#paint20_radial_16_324)"/>
<path d="M24.5251 8.46999C23.4324 7.3742 21.9668 6.7306 20.4206 6.66758C18.8744 6.60456 17.3613 7.12675 16.1831 8.12999C16.134 8.17305 16.0944 8.22587 16.0668 8.28509C16.0393 8.3443 16.0244 8.40861 16.023 8.47391C16.0217 8.5392 16.034 8.60406 16.0592 8.66434C16.0843 8.72461 16.1218 8.77899 16.1691 8.82399L24.1721 16.826C24.2171 16.873 24.2713 16.9102 24.3314 16.9351C24.3915 16.9601 24.4561 16.9723 24.5212 16.9709C24.5862 16.9696 24.6503 16.9548 24.7093 16.9275C24.7683 16.9001 24.821 16.8608 24.8641 16.812C25.8631 15.6319 26.3826 14.1198 26.3198 12.5749C26.257 11.0301 25.6165 9.56511 24.5251 8.46999Z" fill="url(#paint21_radial_16_324)"/>
<path d="M24.5251 8.46999C23.4324 7.3742 21.9668 6.7306 20.4206 6.66758C18.8744 6.60456 17.3613 7.12675 16.1831 8.12999C16.134 8.17305 16.0944 8.22587 16.0668 8.28509C16.0393 8.3443 16.0244 8.40861 16.023 8.47391C16.0217 8.5392 16.034 8.60406 16.0592 8.66434C16.0843 8.72461 16.1218 8.77899 16.1691 8.82399L24.1721 16.826C24.2171 16.873 24.2713 16.9102 24.3314 16.9351C24.3915 16.9601 24.4561 16.9723 24.5212 16.9709C24.5862 16.9696 24.6503 16.9548 24.7093 16.9275C24.7683 16.9001 24.821 16.8608 24.8641 16.812C25.8631 15.6319 26.3826 14.1198 26.3198 12.5749C26.257 11.0301 25.6165 9.56511 24.5251 8.46999Z" fill="url(#paint22_radial_16_324)"/>
<path d="M24.5251 8.46999C23.4324 7.3742 21.9668 6.7306 20.4206 6.66758C18.8744 6.60456 17.3613 7.12675 16.1831 8.12999C16.134 8.17305 16.0944 8.22587 16.0668 8.28509C16.0393 8.3443 16.0244 8.40861 16.023 8.47391C16.0217 8.5392 16.034 8.60406 16.0592 8.66434C16.0843 8.72461 16.1218 8.77899 16.1691 8.82399L24.1721 16.826C24.2171 16.873 24.2713 16.9102 24.3314 16.9351C24.3915 16.9601 24.4561 16.9723 24.5212 16.9709C24.5862 16.9696 24.6503 16.9548 24.7093 16.9275C24.7683 16.9001 24.821 16.8608 24.8641 16.812C25.8631 15.6319 26.3826 14.1198 26.3198 12.5749C26.257 11.0301 25.6165 9.56511 24.5251 8.46999Z" fill="url(#paint23_radial_16_324)"/>
<path d="M24.5251 8.46999C23.4324 7.3742 21.9668 6.7306 20.4206 6.66758C18.8744 6.60456 17.3613 7.12675 16.1831 8.12999C16.134 8.17305 16.0944 8.22587 16.0668 8.28509C16.0393 8.3443 16.0244 8.40861 16.023 8.47391C16.0217 8.5392 16.034 8.60406 16.0592 8.66434C16.0843 8.72461 16.1218 8.77899 16.1691 8.82399L24.1721 16.826C24.2171 16.873 24.2713 16.9102 24.3314 16.9351C24.3915 16.9601 24.4561 16.9723 24.5212 16.9709C24.5862 16.9696 24.6503 16.9548 24.7093 16.9275C24.7683 16.9001 24.821 16.8608 24.8641 16.812C25.8631 15.6319 26.3826 14.1198 26.3198 12.5749C26.257 11.0301 25.6165 9.56511 24.5251 8.46999Z" fill="url(#paint24_linear_16_324)"/>
<path d="M18.1851 15.01C18.7155 15.01 19.2242 14.7993 19.5993 14.4242C19.9743 14.0491 20.1851 13.5404 20.1851 13.01C20.1851 12.4796 19.9743 11.9709 19.5993 11.5958C19.2242 11.2207 18.7155 11.01 18.1851 11.01C17.6546 11.01 17.1459 11.2207 16.7708 11.5958C16.3958 11.9709 16.1851 12.4796 16.1851 13.01C16.1851 13.5404 16.3958 14.0491 16.7708 14.4242C17.1459 14.7993 17.6546 15.01 18.1851 15.01Z" fill="url(#paint25_radial_16_324)"/>
<path d="M18.1851 15.01C18.7155 15.01 19.2242 14.7993 19.5993 14.4242C19.9743 14.0491 20.1851 13.5404 20.1851 13.01C20.1851 12.4796 19.9743 11.9709 19.5993 11.5958C19.2242 11.2207 18.7155 11.01 18.1851 11.01C17.6546 11.01 17.1459 11.2207 16.7708 11.5958C16.3958 11.9709 16.1851 12.4796 16.1851 13.01C16.1851 13.5404 16.3958 14.0491 16.7708 14.4242C17.1459 14.7993 17.6546 15.01 18.1851 15.01Z" fill="url(#paint26_radial_16_324)"/>
<path d="M18.1851 15.01C18.7155 15.01 19.2242 14.7993 19.5993 14.4242C19.9743 14.0491 20.1851 13.5404 20.1851 13.01C20.1851 12.4796 19.9743 11.9709 19.5993 11.5958C19.2242 11.2207 18.7155 11.01 18.1851 11.01C17.6546 11.01 17.1459 11.2207 16.7708 11.5958C16.3958 11.9709 16.1851 12.4796 16.1851 13.01C16.1851 13.5404 16.3958 14.0491 16.7708 14.4242C17.1459 14.7993 17.6546 15.01 18.1851 15.01Z" fill="url(#paint27_radial_16_324)"/>
<path d="M18.1851 15.01C18.7155 15.01 19.2242 14.7993 19.5993 14.4242C19.9743 14.0491 20.1851 13.5404 20.1851 13.01C20.1851 12.4796 19.9743 11.9709 19.5993 11.5958C19.2242 11.2207 18.7155 11.01 18.1851 11.01C17.6546 11.01 17.1459 11.2207 16.7708 11.5958C16.3958 11.9709 16.1851 12.4796 16.1851 13.01C16.1851 13.5404 16.3958 14.0491 16.7708 14.4242C17.1459 14.7993 17.6546 15.01 18.1851 15.01Z" fill="url(#paint28_radial_16_324)"/>
<path d="M18.1851 15.01C18.7155 15.01 19.2242 14.7993 19.5993 14.4242C19.9743 14.0491 20.1851 13.5404 20.1851 13.01C20.1851 12.4796 19.9743 11.9709 19.5993 11.5958C19.2242 11.2207 18.7155 11.01 18.1851 11.01C17.6546 11.01 17.1459 11.2207 16.7708 11.5958C16.3958 11.9709 16.1851 12.4796 16.1851 13.01C16.1851 13.5404 16.3958 14.0491 16.7708 14.4242C17.1459 14.7993 17.6546 15.01 18.1851 15.01Z" fill="url(#paint29_radial_16_324)"/>
<path d="M18.1851 15.01C18.7155 15.01 19.2242 14.7993 19.5993 14.4242C19.9743 14.0491 20.1851 13.5404 20.1851 13.01C20.1851 12.4796 19.9743 11.9709 19.5993 11.5958C19.2242 11.2207 18.7155 11.01 18.1851 11.01C17.6546 11.01 17.1459 11.2207 16.7708 11.5958C16.3958 11.9709 16.1851 12.4796 16.1851 13.01C16.1851 13.5404 16.3958 14.0491 16.7708 14.4242C17.1459 14.7993 17.6546 15.01 18.1851 15.01Z" fill="url(#paint30_radial_16_324)"/>
<path d="M14.1851 13.01C14.7155 13.01 15.2242 12.7993 15.5993 12.4242C15.9743 12.0491 16.1851 11.5404 16.1851 11.01C16.1851 10.4796 15.9743 9.97085 15.5993 9.59578C15.2242 9.22071 14.7155 9.00999 14.1851 9.00999C13.6546 9.00999 13.1459 9.22071 12.7708 9.59578C12.3958 9.97085 12.1851 10.4796 12.1851 11.01C12.1851 11.5404 12.3958 12.0491 12.7708 12.4242C13.1459 12.7993 13.6546 13.01 14.1851 13.01Z" fill="url(#paint31_radial_16_324)"/>
<path d="M14.1851 13.01C14.7155 13.01 15.2242 12.7993 15.5993 12.4242C15.9743 12.0491 16.1851 11.5404 16.1851 11.01C16.1851 10.4796 15.9743 9.97085 15.5993 9.59578C15.2242 9.22071 14.7155 9.00999 14.1851 9.00999C13.6546 9.00999 13.1459 9.22071 12.7708 9.59578C12.3958 9.97085 12.1851 10.4796 12.1851 11.01C12.1851 11.5404 12.3958 12.0491 12.7708 12.4242C13.1459 12.7993 13.6546 13.01 14.1851 13.01Z" fill="url(#paint32_radial_16_324)"/>
<path d="M14.1851 13.01C14.7155 13.01 15.2242 12.7993 15.5993 12.4242C15.9743 12.0491 16.1851 11.5404 16.1851 11.01C16.1851 10.4796 15.9743 9.97085 15.5993 9.59578C15.2242 9.22071 14.7155 9.00999 14.1851 9.00999C13.6546 9.00999 13.1459 9.22071 12.7708 9.59578C12.3958 9.97085 12.1851 10.4796 12.1851 11.01C12.1851 11.5404 12.3958 12.0491 12.7708 12.4242C13.1459 12.7993 13.6546 13.01 14.1851 13.01Z" fill="url(#paint33_radial_16_324)"/>
<path d="M14.1851 13.01C14.7155 13.01 15.2242 12.7993 15.5993 12.4242C15.9743 12.0491 16.1851 11.5404 16.1851 11.01C16.1851 10.4796 15.9743 9.97085 15.5993 9.59578C15.2242 9.22071 14.7155 9.00999 14.1851 9.00999C13.6546 9.00999 13.1459 9.22071 12.7708 9.59578C12.3958 9.97085 12.1851 10.4796 12.1851 11.01C12.1851 11.5404 12.3958 12.0491 12.7708 12.4242C13.1459 12.7993 13.6546 13.01 14.1851 13.01Z" fill="url(#paint34_radial_16_324)"/>
<g filter="url(#filter2_f_16_324)">
<path d="M15.3017 11.3719C15.718 11.1478 15.8563 10.5963 15.6108 10.1402C15.3652 9.68407 14.8287 9.49598 14.4124 9.72009C13.9961 9.94421 13.8578 10.4957 14.1034 10.9518C14.3489 11.4079 14.8855 11.596 15.3017 11.3719Z" fill="url(#paint35_radial_16_324)"/>
</g>
<g filter="url(#filter3_f_16_324)">
<path d="M18.8621 13.458C19.3647 13.458 19.7721 13.0506 19.7721 12.548C19.7721 12.0454 19.3647 11.638 18.8621 11.638C18.3596 11.638 17.9521 12.0454 17.9521 12.548C17.9521 13.0506 18.3596 13.458 18.8621 13.458Z" fill="url(#paint36_radial_16_324)"/>
</g>
<g filter="url(#filter4_f_16_324)">
<path d="M19.8401 7.464C20.8671 7.34 24.3871 8.024 25.2901 11.078" stroke="url(#paint37_radial_16_324)" stroke-width="0.5" stroke-linecap="round"/>
</g>
<g filter="url(#filter5_f_16_324)">
<path d="M25.0404 4.98478C25.9966 5.69333 26.9539 6.02202 27.1785 5.71893C27.403 5.41585 26.8099 4.59577 25.8536 3.88723C24.8973 3.17868 23.94 2.84999 23.7155 3.15307C23.4909 3.45615 24.0841 4.27624 25.0404 4.98478Z" fill="url(#paint38_radial_16_324)"/>
</g>
<g filter="url(#filter6_f_16_324)">
<path d="M11.8673 5.70571C12.8967 6.4222 14.0798 6.50217 14.5099 5.88432C14.9399 5.26648 14.454 4.18478 13.4245 3.46829C12.3951 2.75179 11.2119 2.67182 10.7819 3.28967C10.3519 3.90752 10.8378 4.98921 11.8673 5.70571Z" fill="url(#paint39_radial_16_324)"/>
</g>
<defs>
<filter id="filter0_f_16_324" x="15.7791" y="12.573" width="3.90601" height="18.357" filterUnits="userSpaceOnUse" color-interpolation-filters="sRGB">
<feFlood flood-opacity="0" result="BackgroundImageFix"/>
<feBlend mode="normal" in="SourceGraphic" in2="BackgroundImageFix" result="shape"/>
<feGaussianBlur stdDeviation="0.75" result="effect1_foregroundBlur_16_324"/>
</filter>
<filter id="filter1_f_16_324" x="9.80298" y="6.46738" width="7.02295" height="5.22063" filterUnits="userSpaceOnUse" color-interpolation-filters="sRGB">
<feFlood flood-opacity="0" result="BackgroundImageFix"/>
<feBlend mode="normal" in="SourceGraphic" in2="BackgroundImageFix" result="shape"/>
<feGaussianBlur stdDeviation="0.25" result="effect1_foregroundBlur_16_324"/>
</filter>
<filter id="filter2_f_16_324" x="12.9819" y="8.62558" width="3.75024" height="3.84084" filterUnits="userSpaceOnUse" color-interpolation-filters="sRGB">
<feFlood flood-opacity="0" result="BackgroundImageFix"/>
<feBlend mode="normal" in="SourceGraphic" in2="BackgroundImageFix" result="shape"/>
<feGaussianBlur stdDeviation="0.5" result="effect1_foregroundBlur_16_324"/>
</filter>
<filter id="filter3_f_16_324" x="16.9521" y="10.638" width="3.82007" height="3.82001" filterUnits="userSpaceOnUse" color-interpolation-filters="sRGB">
<feFlood flood-opacity="0" result="BackgroundImageFix"/>
<feBlend mode="normal" in="SourceGraphic" in2="BackgroundImageFix" result="shape"/>
<feGaussianBlur stdDeviation="0.5" result="effect1_foregroundBlur_16_324"/>
</filter>
<filter id="filter4_f_16_324" x="19.0901" y="6.70042" width="6.94995" height="5.12764" filterUnits="userSpaceOnUse" color-interpolation-filters="sRGB">
<feFlood flood-opacity="0" result="BackgroundImageFix"/>
<feBlend mode="normal" in="SourceGraphic" in2="BackgroundImageFix" result="shape"/>
<feGaussianBlur stdDeviation="0.25" result="effect1_foregroundBlur_16_324"/>
</filter>
<filter id="filter5_f_16_324" x="22.918" y="2.29027" width="5.05811" height="4.29147" filterUnits="userSpaceOnUse" color-interpolation-filters="sRGB">
<feFlood flood-opacity="0" result="BackgroundImageFix"/>
<feBlend mode="normal" in="SourceGraphic" in2="BackgroundImageFix" result="shape"/>
<feGaussianBlur stdDeviation="0.375" result="effect1_foregroundBlur_16_324"/>
</filter>
<filter id="filter6_f_16_324" x="9.87524" y="2.12392" width="5.54126" height="4.92616" filterUnits="userSpaceOnUse" color-interpolation-filters="sRGB">
<feFlood flood-opacity="0" result="BackgroundImageFix"/>
<feBlend mode="normal" in="SourceGraphic" in2="BackgroundImageFix" result="shape"/>
<feGaussianBlur stdDeviation="0.375" result="effect1_foregroundBlur_16_324"/>
</filter>
<linearGradient id="paint0_linear_16_324" x1="13.202" y1="18.982" x2="19.169" y2="18.982" gradientUnits="userSpaceOnUse">
<stop stop-color="#734951"/>
<stop offset="0.385" stop-color="#924F67"/>
<stop offset="1" stop-color="#A97270"/>
</linearGradient>
<linearGradient id="paint1_linear_16_324" x1="17.747" y1="10.116" x2="17.515" y2="16.602" gradientUnits="userSpaceOnUse">
<stop stop-color="#734951"/>
<stop offset="1" stop-color="#734951" stop-opacity="0"/>
</linearGradient>
<radialGradient id="paint2_radial_16_324" cx="0" cy="0" r="1" gradientUnits="userSpaceOnUse" gradientTransform="translate(16.566 9.03999) rotate(62.0785) scale(5.259 1.5129)">
<stop stop-color="#4B2231"/>
<stop offset="1" stop-color="#4B2231" stop-opacity="0"/>
</radialGradient>
<radialGradient id="paint3_radial_16_324" cx="0" cy="0" r="1" gradientUnits="userSpaceOnUse" gradientTransform="translate(16.1856 8.86799) rotate(134.423) scale(5.66681 1.1388)">
<stop stop-color="#4B2231"/>
<stop offset="1" stop-color="#4B2231" stop-opacity="0"/>
</radialGradient>
<radialGradient id="paint4_radial_16_324" cx="0" cy="0" r="1" gradientUnits="userSpaceOnUse" gradientTransform="translate(16.5651 12.4441) rotate(117.987) scale(4.24372 3.01145)">
<stop stop-color="#6C3250"/>
<stop offset="1" stop-color="#6C3250" stop-opacity="0"/>
</radialGradient>
<linearGradient id="paint5_linear_16_324" x1="17.7321" y1="0.852998" x2="20.1191" y2="22.87" gradientUnits="userSpaceOnUse">
<stop stop-color="#AE7779" stop-opacity="0"/>
<stop offset="1" stop-color="#B68087"/>
</linearGradient>
<radialGradient id="paint6_radial_16_324" cx="0" cy="0" r="1" gradientUnits="userSpaceOnUse" gradientTransform="translate(12.3021 4.31687) rotate(91.409) scale(5.2441 12.1906)">
<stop stop-color="#9ED141"/>
<stop offset="1" stop-color="#799D4B"/>
</radialGradient>
<radialGradient id="paint7_radial_16_324" cx="0" cy="0" r="1" gradientUnits="userSpaceOnUse" gradientTransform="translate(11.0181 5.598) rotate(90) scale(2.65232 6.96779)">
<stop stop-color="#9AC644"/>
<stop offset="1" stop-color="#9AC644" stop-opacity="0"/>
</radialGradient>
<linearGradient id="paint8_linear_16_324" x1="16.0541" y1="8.57" x2="14.6091" y2="6.175" gradientUnits="userSpaceOnUse">
<stop stop-color="#5D9501"/>
<stop offset="1" stop-color="#5D9501" stop-opacity="0"/>
</linearGradient>
<linearGradient id="paint9_linear_16_324" x1="8.74706" y1="8.694" x2="8.74706" y2="7.62" gradientUnits="userSpaceOnUse">
<stop stop-color="#9C99A6"/>
<stop offset="1" stop-color="#9C99A6" stop-opacity="0"/>
</linearGradient>
<radialGradient id="paint10_radial_16_324" cx="0" cy="0" r="1" gradientUnits="userSpaceOnUse" gradientTransform="translate(9.31234 8.25126) rotate(161.115) scale(4.14941 1.65712)">
<stop stop-color="#66981B"/>
<stop offset="1" stop-color="#66981B" stop-opacity="0"/>
</radialGradient>
<radialGradient id="paint11_radial_16_324" cx="0" cy="0" r="1" gradientUnits="userSpaceOnUse" gradientTransform="translate(12.3205 7.14714) rotate(176.403) scale(9.02414 7.42158)">
<stop offset="0.747" stop-color="#82AB5A" stop-opacity="0"/>
<stop offset="0.984" stop-color="#82AB5A"/>
</radialGradient>
<radialGradient id="paint12_radial_16_324" cx="0" cy="0" r="1" gradientUnits="userSpaceOnUse" gradientTransform="translate(26.918 6.103) rotate(180) scale(14.6235 15.2713)">
<stop stop-color="#A3D350"/>
<stop offset="1" stop-color="#679E15"/>
</radialGradient>
<radialGradient id="paint13_radial_16_324" cx="0" cy="0" r="1" gradientUnits="userSpaceOnUse" gradientTransform="translate(26.209 5.344) rotate(180) scale(8.34375 4.67926)">
<stop stop-color="#A3CF56"/>
<stop offset="1" stop-color="#A3CF56" stop-opacity="0"/>
</radialGradient>
<linearGradient id="paint14_linear_16_324" x1="24.959" y1="9.09" x2="24.959" y2="7.656" gradientUnits="userSpaceOnUse">
<stop stop-color="#95A096"/>
<stop offset="1" stop-color="#95A096" stop-opacity="0"/>
</linearGradient>
<radialGradient id="paint15_radial_16_324" cx="0" cy="0" r="1" gradientUnits="userSpaceOnUse" gradientTransform="translate(13.803 10.813) rotate(118.61) scale(8.61435 7.82592)">
<stop stop-color="#65943F"/>
<stop offset="1" stop-color="#4C712C"/>
</radialGradient>
<radialGradient id="paint16_radial_16_324" cx="0" cy="0" r="1" gradientUnits="userSpaceOnUse" gradientTransform="translate(12.0947 11.9171) rotate(134.668) scale(4.83983 1.45831)">
<stop stop-color="#69785C"/>
<stop offset="1" stop-color="#69785C" stop-opacity="0"/>
</radialGradient>
<radialGradient id="paint17_radial_16_324" cx="0" cy="0" r="1" gradientUnits="userSpaceOnUse" gradientTransform="translate(13.215 11.7366) rotate(133.809) scale(2.65951 2.51637)">
<stop stop-color="#4E5E45"/>
<stop offset="1" stop-color="#4E5E45" stop-opacity="0"/>
</radialGradient>
<linearGradient id="paint18_linear_16_324" x1="11.654" y1="13.568" x2="11.304" y2="13.248" gradientUnits="userSpaceOnUse">
<stop stop-color="#617247"/>
<stop offset="1" stop-color="#617247" stop-opacity="0"/>
</linearGradient>
<linearGradient id="paint19_linear_16_324" x1="15.021" y1="8.625" x2="11.428" y2="9.344" gradientUnits="userSpaceOnUse">
<stop stop-color="#7C9D5A"/>
<stop offset="1" stop-color="#7C9D5A" stop-opacity="0"/>
</linearGradient>
<radialGradient id="paint20_radial_16_324" cx="0" cy="0" r="1" gradientUnits="userSpaceOnUse" gradientTransform="translate(23.2351 9.70699) rotate(136.102) scale(4.5827 7.96169)">
<stop stop-color="#74A550"/>
<stop offset="1" stop-color="#517D2A"/>
</radialGradient>
<radialGradient id="paint21_radial_16_324" cx="0" cy="0" r="1" gradientUnits="userSpaceOnUse" gradientTransform="translate(20.4311 14.785) rotate(-47.7789) scale(2.27157 9.3503)">
<stop stop-color="#576043"/>
<stop offset="1" stop-color="#576043" stop-opacity="0"/>
</radialGradient>
<radialGradient id="paint22_radial_16_324" cx="0" cy="0" r="1" gradientUnits="userSpaceOnUse" gradientTransform="translate(13.2661 7.65099) rotate(30.406) scale(15.1415 14.0193)">
<stop offset="0.757" stop-color="#6C9543" stop-opacity="0"/>
<stop offset="1" stop-color="#6C9543"/>
</radialGradient>
<radialGradient id="paint23_radial_16_324" cx="0" cy="0" r="1" gradientUnits="userSpaceOnUse" gradientTransform="translate(19.3872 12.6202) rotate(-103.221) scale(2.65606 1.34422)">
<stop stop-color="#3E6A0C"/>
<stop offset="1" stop-color="#3E6A0C" stop-opacity="0"/>
</radialGradient>
<linearGradient id="paint24_linear_16_324" x1="19.5881" y1="13.47" x2="20.4561" y2="12.603" gradientUnits="userSpaceOnUse">
<stop stop-color="#394B28"/>
<stop offset="1" stop-color="#394B28" stop-opacity="0"/>
</linearGradient>
<radialGradient id="paint25_radial_16_324" cx="0" cy="0" r="1" gradientUnits="userSpaceOnUse" gradientTransform="translate(18.7087 13.0093) rotate(130.622) scale(2.9519 3.72501)">
<stop stop-color="#B97056"/>
<stop offset="1" stop-color="#82582F"/>
</radialGradient>
<radialGradient id="paint26_radial_16_324" cx="0" cy="0" r="1" gradientUnits="userSpaceOnUse" gradientTransform="translate(17.8031 15.01) rotate(-83.4151) scale(2.18007 2.39351)">
<stop stop-color="#B5547D"/>
<stop offset="1" stop-color="#B5547D" stop-opacity="0"/>
</radialGradient>
<radialGradient id="paint27_radial_16_324" cx="0" cy="0" r="1" gradientUnits="userSpaceOnUse" gradientTransform="translate(19.2164 14.8982) rotate(-125.655) scale(0.44229 1.42759)">
<stop stop-color="#AD619B"/>
<stop offset="1" stop-color="#AD619B" stop-opacity="0"/>
</radialGradient>
<radialGradient id="paint28_radial_16_324" cx="0" cy="0" r="1" gradientUnits="userSpaceOnUse" gradientTransform="translate(16.2241 14.281) rotate(-32.9052) scale(0.632764 1.04366)">
<stop stop-color="#AD619B"/>
<stop offset="1" stop-color="#AD619B" stop-opacity="0"/>
</radialGradient>
<radialGradient id="paint29_radial_16_324" cx="0" cy="0" r="1" gradientUnits="userSpaceOnUse" gradientTransform="translate(16.4391 14.404) rotate(-33.947) scale(4.51569 4.0109)">
<stop offset="0.817" stop-color="#AC794F" stop-opacity="0"/>
<stop offset="1" stop-color="#AC794F"/>
</radialGradient>
<radialGradient id="paint30_radial_16_324" cx="0" cy="0" r="1" gradientUnits="userSpaceOnUse" gradientTransform="translate(16.1851 12.087) rotate(90) scale(1.59191 0.53915)">
<stop stop-color="#893E2F"/>
<stop offset="1" stop-color="#893E2F" stop-opacity="0"/>
</radialGradient>
<radialGradient id="paint31_radial_16_324" cx="0" cy="0" r="1" gradientUnits="userSpaceOnUse" gradientTransform="translate(14.7095 11.0098) rotate(130.622) scale(2.9519 3.72501)">
<stop stop-color="#AA674F"/>
<stop offset="1" stop-color="#82582F"/>
</radialGradient>
<radialGradient id="paint32_radial_16_324" cx="0" cy="0" r="1" gradientUnits="userSpaceOnUse" gradientTransform="translate(13.8031 13.01) rotate(-83.4151) scale(2.18007 2.39351)">
<stop stop-color="#AC4D77"/>
<stop offset="1" stop-color="#AC4D77" stop-opacity="0"/>
</radialGradient>
<radialGradient id="paint33_radial_16_324" cx="0" cy="0" r="1" gradientUnits="userSpaceOnUse" gradientTransform="translate(13.5531 13.078) rotate(-72.2555) scale(0.410142 0.941209)">
<stop stop-color="#AD619B"/>
<stop offset="1" stop-color="#AD619B" stop-opacity="0"/>
</radialGradient>
<radialGradient id="paint34_radial_16_324" cx="0" cy="0" r="1" gradientUnits="userSpaceOnUse" gradientTransform="translate(12.4401 12.405) rotate(-33.947) scale(4.51569 4.0109)">
<stop offset="0.773" stop-color="#AC794F" stop-opacity="0"/>
<stop offset="1" stop-color="#AC794F"/>
</radialGradient>
<radialGradient id="paint35_radial_16_324" cx="0" cy="0" r="1" gradientUnits="userSpaceOnUse" gradientTransform="translate(15.1182 10.1626) rotate(120.874) scale(2.56438 2.68745)">
<stop stop-color="#D79F87"/>
<stop offset="1" stop-color="#D79F87" stop-opacity="0"/>
</radialGradient>
<radialGradient id="paint36_radial_16_324" cx="0" cy="0" r="1" gradientUnits="userSpaceOnUse" gradientTransform="translate(19.3013 12.3414) rotate(151.44) scale(2.66467)">
<stop stop-color="#D79F87"/>
<stop offset="1" stop-color="#D79F87" stop-opacity="0"/>
</radialGradient>
<radialGradient id="paint37_radial_16_324" cx="0" cy="0" r="1" gradientUnits="userSpaceOnUse" gradientTransform="translate(23.6715 8.02487) rotate(132.065) scale(1.72046 5.17039)">
<stop stop-color="#80B35C"/>
<stop offset="1" stop-color="#80B35C" stop-opacity="0"/>
</radialGradient>
<radialGradient id="paint38_radial_16_324" cx="0" cy="0" r="1" gradientUnits="userSpaceOnUse" gradientTransform="translate(27.2436 5.50335) rotate(-141.341) scale(3.98917 0.742449)">
<stop stop-color="#C0EF77"/>
<stop offset="1" stop-color="#C0EF77" stop-opacity="0"/>
</radialGradient>
<radialGradient id="paint39_radial_16_324" cx="0" cy="0" r="1" gradientUnits="userSpaceOnUse" gradientTransform="translate(15.4525 6.11765) rotate(-152.436) scale(5.57839 1.95692)">
<stop stop-color="#B8E172"/>
<stop offset="1" stop-color="#B8E172" stop-opacity="0"/>
</radialGradient>
</defs>
</svg>
