<svg width="30" height="30" viewBox="0 0 30 30" fill="none" xmlns="http://www.w3.org/2000/svg">
<path d="M16.8867 12.1219L14.4539 13.7508C14.4539 13.7508 16.3875 15.9984 16.9453 19.0945C17.3062 21.0914 17.5898 22.8727 17.3531 24.5648C17.257 25.2562 16.589 26.6508 16.3968 27.1195C16.2046 27.5883 15.9281 28.6922 16.7835 28.9125C17.639 29.1328 20.4257 29.2172 20.8406 29.1609C21.2554 29.1047 21.7453 28.8047 21.5226 27.8039C21.3843 27.1828 21.15 25.2398 21.0117 23.9156C20.8734 22.5914 20.789 20.0414 19.6359 16.9102C18.5132 13.8633 16.8867 12.1219 16.8867 12.1219Z" fill="#DC8124"/>
<path d="M19.125 25.5609C20.3813 25.6336 21.1782 25.3922 21.1782 25.3922L21.3493 26.6648C21.3493 26.6648 20.5805 26.8828 19.1344 26.7914C17.8711 26.7117 16.7297 26.3672 16.7297 26.3672L17.2008 25.1648C17.1985 25.1625 17.8594 25.4883 19.125 25.5609ZM17.3907 22.1086C17.3907 22.1086 17.4141 22.4625 17.4258 22.6852C17.4375 22.9102 17.4422 23.257 17.4422 23.257C17.4422 23.257 18.3915 23.3672 19.1415 23.3367C20.3696 23.2875 20.9227 22.9945 20.9227 22.9945C20.9227 22.9945 20.9016 22.7203 20.8665 22.3969C20.8336 22.0711 20.7938 21.8039 20.7938 21.8039C20.7938 21.8039 20.1915 22.1016 18.9258 22.1836C18.0235 22.2422 17.3907 22.1086 17.3907 22.1086ZM16.9055 18.8836C16.9055 18.8836 17.4821 19.0008 18.5555 18.7687C19.5985 18.5414 20.0461 18.1453 20.0461 18.1453C20.0461 18.1453 20.1446 18.45 20.2032 18.6844C20.2571 18.9023 20.3415 19.2211 20.3415 19.2211C20.3415 19.2211 19.9196 19.6359 18.7758 19.8609C17.6532 20.0836 17.0954 19.9312 17.0954 19.9312C17.0954 19.9312 17.0415 19.6312 17.004 19.4086C16.9594 19.1555 16.9055 18.8836 16.9055 18.8836Z" fill="#C0711F"/>
<path d="M16.3125 16.9031C16.3125 16.9031 16.8445 16.9383 17.8781 16.5492C18.7804 16.2094 19.1671 15.7547 19.1671 15.7547L17.8968 12.9656L14.8523 14.0719L16.3125 16.9031Z" fill="#A2672B"/>
<path d="M16.2585 13.4766C16.2585 13.4766 18.6116 14.2289 19.6499 14.5758C20.6882 14.9227 21.5155 15.0961 21.5155 15.0961C21.5155 15.0961 21.8413 14.4492 21.9561 13.8914C22.0335 13.5211 22.0171 12.9398 22.1765 12.9516C22.439 12.9703 22.6288 13.4156 22.6405 14.0203C22.6499 14.5406 22.514 15.3141 22.514 15.3141L23.6132 15.6141C23.6132 15.6141 23.8968 15.2062 24.0561 14.557C24.2225 13.8773 24.1382 13.6195 24.3046 13.5727C24.4897 13.5211 24.839 13.7625 24.7733 14.8359C24.7335 15.4898 24.6233 15.8625 24.6561 15.8883C24.71 15.9305 25.2397 16.1273 25.7202 16.2633C26.2007 16.3969 26.6929 16.4836 26.6929 16.4836C26.6929 16.4836 27.5624 12.5648 25.1343 10.9828C22.0968 9.00234 18.1921 10.7719 18.1921 10.7719L21.0538 8.5125C21.0538 8.5125 20.8475 8.00156 20.5968 7.6125C20.3108 7.16718 19.9288 6.88359 20.0015 6.78281C20.0999 6.64218 20.6905 6.64218 21.1944 7.11093C21.6186 7.50703 21.9397 7.91718 21.9538 7.9289L22.7952 7.32187C22.7952 7.32187 22.7132 6.77109 22.4905 6.42187C22.2749 6.08203 21.9468 5.76562 22.0288 5.71875C22.2022 5.62031 22.7413 5.7914 23.0811 6.12187C23.3741 6.40781 23.6108 6.85078 23.6108 6.85078L25.3218 5.6789C25.3218 5.6789 24.0725 3.69843 21.4382 3.79453C18.8038 3.89062 17.3811 5.58281 16.9382 6.08203C16.4952 6.58125 15.996 7.65937 15.996 7.65937L16.0452 4.67109C16.0452 4.67109 15.635 4.57734 15.2413 4.53046C14.6483 4.46015 14.2358 4.58203 14.2265 4.52343C14.196 4.31484 14.5663 4.01015 15.1499 3.88593C15.7218 3.7664 16.1835 3.83671 16.1835 3.83671L16.6663 1.04296C16.6663 1.04296 15.5905 0.956245 14.3905 1.52578C13.6147 1.89375 12.7147 2.53125 12.1171 3.56484C10.7929 5.85 12.0702 8.31093 12.0702 8.31093C12.0702 8.31093 10.1999 6.36562 7.08974 7.09921C3.67958 7.90312 2.81942 11.6461 3.01161 11.6461C3.53192 11.6461 5.43036 11.7352 5.52645 11.6578C5.57567 11.6203 5.70692 11.093 6.01864 10.6172C6.32802 10.1414 6.74286 9.74062 7.0827 9.74062C7.25849 9.74062 7.02177 10.0945 6.81317 10.6055C6.60224 11.1258 6.48505 11.7047 6.48505 11.7047H8.17724C8.17724 11.7047 8.53349 9.9914 9.1288 9.86953C9.38427 9.81796 9.21083 10.3687 9.14755 10.7906C9.08192 11.2266 9.04442 11.707 9.04442 11.707L11.1866 11.775C11.1866 11.775 8.4327 11.9414 6.52255 13.6852C4.54677 15.4852 4.34052 17.9883 4.51395 19.2375C4.68739 20.4867 4.86083 21.0633 4.97567 21.1219C5.09052 21.1805 6.68661 19.4109 6.7452 19.275C6.8038 19.1414 6.49442 18.5625 6.49442 17.7937C6.49442 17.025 6.66786 16.6406 6.8202 16.6219C6.97489 16.6031 6.93505 17.1609 7.04989 17.6414C7.17177 18.1453 7.35692 18.5648 7.43427 18.6023C7.51161 18.6398 8.44911 17.4516 8.44911 17.4516C8.44911 17.4516 8.28974 17.0016 8.23817 16.5633C8.18661 16.125 8.23114 15.6516 8.3577 15.5648C8.49599 15.4687 8.61317 15.9703 8.77724 16.3992C8.90849 16.7414 8.97177 16.8586 9.04677 16.95L10.7436 15.3352C10.7436 15.3352 9.37489 17.5219 9.55302 19.6992C9.74989 22.1344 11.4374 23.0461 11.5335 23.025C11.6296 23.0062 12.764 20.4094 12.764 20.4094C12.764 20.4094 12.3632 20.0414 12.0655 19.4859C11.6905 18.7852 11.6999 18.2484 11.8405 18.1594C12.0374 18.0352 12.321 18.8133 12.6093 19.1602C12.8975 19.507 13.071 19.6992 13.1296 19.6992C13.1882 19.6992 14.0249 17.8711 14.0249 17.8711C14.0249 17.8711 13.7811 17.7281 13.5983 17.4445C13.4436 17.2055 13.3054 16.793 13.4366 16.5445C13.5772 16.4133 13.7202 16.7531 13.9382 16.9312C14.1561 17.1094 14.3225 17.1984 14.3225 17.1984C14.3225 17.1984 15.2061 15.6797 15.553 14.9672C15.9022 14.2477 16.2585 13.4766 16.2585 13.4766Z" fill="#728137"/>
<path d="M16.814 14.4937C16.9218 14.4234 17.1398 12.9633 17.2429 12.2344C17.3366 11.5781 17.5663 10.5961 17.0671 10.5C16.7249 10.4344 16.582 10.9195 16.4695 11.4398C16.371 11.9039 16.2257 12.5344 16.2257 12.5344C16.2257 12.5344 15.7827 11.6836 15.4851 11.1656C15.2695 10.7906 14.8054 10.0008 14.4351 10.2375C14.0109 10.5094 14.4702 11.3789 14.7304 11.8594C14.9905 12.3398 15.2835 12.9 15.2835 12.9C15.2835 12.9 14.5007 12.6328 14.0437 12.4922C13.5421 12.3375 12.8741 12.2016 12.7804 12.4711C12.6163 12.9398 13.2351 13.1742 14.4351 13.6641C15.628 14.1492 16.6312 14.6133 16.814 14.4937ZM12.2179 5.43281C12.164 6.38906 12.3327 7.78125 13.0124 7.62656C13.6007 7.49531 12.9187 6.59297 12.9257 5.45156C12.9351 3.85078 13.971 3.46875 13.6452 3.12422C13.3804 2.84297 12.3046 3.87891 12.2179 5.43281ZM8.2593 8.01797C8.90383 7.87266 9.3093 7.89375 9.32336 7.73906C9.33976 7.53984 9.14289 7.39922 8.30851 7.44141C7.54211 7.47891 6.76867 7.68047 6.01867 8.18906C5.59588 8.4756 5.21083 8.8142 4.87258 9.19688C4.15539 10.0219 4.04758 10.718 4.47648 10.8047C4.91945 10.8937 5.1257 10.3945 5.46086 9.8625C6.26711 8.57578 7.49289 8.19141 8.2593 8.01797ZM5.5007 19.8047C5.86633 19.7906 5.85461 19.4414 5.86398 18.5391C5.87101 17.9508 5.84523 17.1867 6.09367 16.432C6.42883 15.4172 6.9468 14.7727 7.53976 14.2289C8.19133 13.6312 8.87805 13.2727 9.26476 13.0992C10.003 12.7641 9.65851 12.4664 9.16867 12.6773C8.68117 12.8883 7.0218 13.4906 5.93898 15.1406C5.23351 16.2141 5.05773 17.0625 5.02726 18.1945C5.00617 19.0477 5.25226 19.8141 5.5007 19.8047ZM11.0976 16.3359C10.7999 16.3359 10.2538 17.7445 10.2937 19.1625C10.3312 20.5805 10.7976 21.4875 11.2124 21.6539C11.5476 21.7875 11.7866 21.4336 11.6624 20.8875C11.5804 20.5313 11.1351 19.957 11.0484 19.0289C10.9616 18.0984 11.1257 17.0836 11.1726 16.8352C11.2218 16.5844 11.2968 16.3359 11.0976 16.3359Z" fill="#BDCF47"/>
</svg>
