<svg width="73" height="65" viewBox="0 0 73 65" fill="none" xmlns="http://www.w3.org/2000/svg">
<g filter="url(#filter0_d_23_403)">
<rect width="65" height="57" transform="matrix(-1 0 0 1 69 0)" fill="white"/>
</g>
<g filter="url(#filter1_d_23_403)">
<path d="M37 43C28.7157 43 22 36.2843 22 28C22 19.7157 28.7157 13 37 13C45.2843 13 52 19.7157 52 28C52 36.2843 45.2843 43 37 43Z" fill="#5F3EEF"/>
<path d="M37 43C28.7157 43 22 36.2843 22 28C22 19.7157 28.7157 13 37 13C45.2843 13 52 19.7157 52 28C52 36.2843 45.2843 43 37 43Z" stroke="#F5F7F8"/>
</g>
<defs>
<filter id="filter0_d_23_403" x="0" y="0" width="73" height="65" filterUnits="userSpaceOnUse" color-interpolation-filters="sRGB">
<feFlood flood-opacity="0" result="BackgroundImageFix"/>
<feColorMatrix in="SourceAlpha" type="matrix" values="0 0 0 0 0 0 0 0 0 0 0 0 0 0 0 0 0 0 127 0" result="hardAlpha"/>
<feOffset dy="4"/>
<feGaussianBlur stdDeviation="2"/>
<feComposite in2="hardAlpha" operator="out"/>
<feColorMatrix type="matrix" values="0 0 0 0 0.372549 0 0 0 0 0.243137 0 0 0 0 0.937255 0 0 0 0.25 0"/>
<feBlend mode="normal" in2="BackgroundImageFix" result="effect1_dropShadow_23_403"/>
<feBlend mode="normal" in="SourceGraphic" in2="effect1_dropShadow_23_403" result="shape"/>
</filter>
<filter id="filter1_d_23_403" x="17.5" y="12.5" width="39" height="39" filterUnits="userSpaceOnUse" color-interpolation-filters="sRGB">
<feFlood flood-opacity="0" result="BackgroundImageFix"/>
<feColorMatrix in="SourceAlpha" type="matrix" values="0 0 0 0 0 0 0 0 0 0 0 0 0 0 0 0 0 0 127 0" result="hardAlpha"/>
<feOffset dy="4"/>
<feGaussianBlur stdDeviation="2"/>
<feComposite in2="hardAlpha" operator="out"/>
<feColorMatrix type="matrix" values="0 0 0 0 0 0 0 0 0 0 0 0 0 0 0 0 0 0 0.25 0"/>
<feBlend mode="normal" in2="BackgroundImageFix" result="effect1_dropShadow_23_403"/>
<feBlend mode="normal" in="SourceGraphic" in2="effect1_dropShadow_23_403" result="shape"/>
</filter>
</defs>
</svg>
