<svg width="50" height="57" viewBox="0 0 50 57" fill="none" xmlns="http://www.w3.org/2000/svg">
<path d="M27.261 35.9814C27.0255 35.9357 26.8282 35.8959 26.674 35.864C26.6629 35.6456 26.633 35.497 26.5857 35.3476C26.5749 35.3135 26.5642 35.2822 26.5537 35.2513C26.5107 35.1252 26.4695 35.0043 26.4275 34.7149C26.3158 33.9437 26.2264 32.1059 26.3827 26.9596C26.4183 25.7865 26.4328 24.7495 26.4457 23.8251C26.4614 22.6958 26.4748 21.7345 26.5216 20.8987C26.6068 19.3771 26.8005 18.4472 27.2249 17.8451C27.6238 17.2792 28.2939 16.9166 29.6 16.7325C30.9145 16.5472 32.7665 16.5567 35.4103 16.6461C42.0191 16.8694 45.4162 18.0642 47.182 20.2951C48.0674 21.4137 48.5804 22.8381 48.8488 24.6449C49.1178 26.456 49.1363 28.6161 49.0583 31.1818C49.0224 32.3659 48.6617 33.3049 48.0701 34.0582C47.4739 34.8174 46.623 35.4131 45.5726 35.8686C43.461 36.7845 40.6307 37.097 37.7496 37.0884C34.8798 37.0797 32.0127 36.7532 29.8583 36.4275C28.7823 36.2648 27.8868 36.1026 27.261 35.9814Z" fill="white" stroke="#D0DCE5"/>
<rect x="0.5" y="0.5" width="35" height="56" fill="white"/>
<rect x="0.5" y="0.5" width="35" height="56" stroke="#DDE6EA"/>
<rect x="0.5" y="0.5" width="35" height="56" stroke="#D0DCE5"/>
<path d="M18.5 36C22.6421 36 26 32.6421 26 28.5C26 24.3579 22.6421 21 18.5 21C14.3579 21 11 24.3579 11 28.5C11 32.6421 14.3579 36 18.5 36Z" fill="#5F3EEF" stroke="#F5F7F8"/>
</svg>
