<svg width="102" height="57" viewBox="0 0 102 57" fill="none" xmlns="http://www.w3.org/2000/svg">
<path d="M22.7392 35.9814C22.9748 35.9357 23.1721 35.8959 23.3263 35.864C23.3373 35.6456 23.3673 35.497 23.4146 35.3476C23.4254 35.3135 23.436 35.2822 23.4466 35.2513C23.4896 35.1252 23.5308 35.0043 23.5727 34.7149C23.6845 33.9437 23.7738 32.1059 23.6176 26.9596C23.5819 25.7865 23.5675 24.7495 23.5546 23.8251C23.5388 22.6958 23.5254 21.7345 23.4786 20.8987C23.3934 19.3771 23.1997 18.4472 22.7754 17.8451C22.3765 17.2792 21.7064 16.9166 20.4002 16.7325C19.0857 16.5472 17.2337 16.5567 14.59 16.6461C7.9811 16.8694 4.58404 18.0642 2.81829 20.2951C1.93287 21.4137 1.41983 22.8381 1.15146 24.6449C0.882439 26.456 0.863983 28.6161 0.941905 31.1818C0.977864 32.3659 1.33852 33.3049 1.93009 34.0582C2.52632 34.8174 3.37727 35.4131 4.42761 35.8686C6.53922 36.7845 9.3695 37.097 12.2507 37.0884C15.1204 37.0797 17.9876 36.7532 20.1419 36.4275C21.2179 36.2648 22.1134 36.1026 22.7392 35.9814Z" fill="white" stroke="#D0DCE5"/>
<rect x="-0.5" y="0.5" width="35" height="56" transform="matrix(-1 0 0 1 49.0002 0)" fill="white"/>
<rect x="-0.5" y="0.5" width="35" height="56" transform="matrix(-1 0 0 1 49.0002 0)" stroke="#DDE6EA"/>
<rect x="-0.5" y="0.5" width="35" height="56" transform="matrix(-1 0 0 1 49.0002 0)" stroke="#D0DCE5"/>
<path d="M31.5002 36C27.3581 36 24.0002 32.6421 24.0002 28.5C24.0002 24.3579 27.3581 21 31.5002 21C35.6424 21 39.0002 24.3579 39.0002 28.5C39.0002 32.6421 35.6424 36 31.5002 36Z" fill="#5F3EEF" stroke="#F5F7F8"/>
<path d="M79.261 35.9814C79.0255 35.9357 78.8282 35.8959 78.674 35.864C78.6629 35.6456 78.633 35.497 78.5857 35.3476C78.5749 35.3135 78.5642 35.2822 78.5537 35.2513C78.5107 35.1252 78.4695 35.0043 78.4275 34.7149C78.3158 33.9437 78.2264 32.1059 78.3827 26.9596C78.4183 25.7865 78.4328 24.7495 78.4457 23.8251C78.4614 22.6958 78.4748 21.7345 78.5216 20.8987C78.6068 19.3771 78.8005 18.4472 79.2249 17.8451C79.6238 17.2792 80.2939 16.9166 81.6 16.7325C82.9145 16.5472 84.7665 16.5567 87.4103 16.6461C94.0191 16.8694 97.4162 18.0642 99.182 20.2951C100.067 21.4137 100.58 22.8381 100.849 24.6449C101.118 26.456 101.136 28.6161 101.058 31.1818C101.022 32.3659 100.662 33.3049 100.07 34.0582C99.4739 34.8174 98.623 35.4131 97.5726 35.8686C95.461 36.7845 92.6307 37.097 89.7496 37.0884C86.8798 37.0797 84.0127 36.7532 81.8583 36.4275C80.7823 36.2648 79.8868 36.1026 79.261 35.9814Z" fill="white" stroke="#D0DCE5"/>
<rect x="52.5" y="0.5" width="35" height="56" fill="white"/>
<rect x="52.5" y="0.5" width="35" height="56" stroke="#DDE6EA"/>
<rect x="52.5" y="0.5" width="35" height="56" stroke="#D0DCE5"/>
<path d="M70.5 36C74.6421 36 78 32.6421 78 28.5C78 24.3579 74.6421 21 70.5 21C66.3579 21 63 24.3579 63 28.5C63 32.6421 66.3579 36 70.5 36Z" fill="#5F3EEF" stroke="#F5F7F8"/>
</svg>
